<svg width="641" height="501" viewBox="0 0 641 501" fill="none" xmlns="http://www.w3.org/2000/svg">
<path d="M462.749 315.488C480.173 299.347 511.061 301.232 526.395 319.4C532.43 326.56 536.532 335.937 544.832 340.277C557.504 346.946 572.964 338.535 587.284 339.755C604.074 341.18 617.855 358.224 615.796 374.935C614.861 382.475 611.281 390.506 614.829 397.222C619.344 405.792 632.412 406.14 637.908 414.108C642.866 421.315 639.001 431.944 631.794 436.917C624.587 441.891 615.304 442.509 606.561 442.113C597.817 441.717 588.947 440.529 580.425 442.43C571.032 444.552 563.001 450.35 553.988 453.898C532.493 462.515 507.323 457.715 487.46 445.883C467.596 434.05 452.137 415.961 438.704 397.096" fill="#626262"/>
<g opacity="0.8">
<path opacity="0.8" d="M462.749 315.488C480.173 299.347 511.061 301.232 526.395 319.4C532.43 326.56 536.532 335.937 544.832 340.277C557.504 346.946 572.964 338.535 587.284 339.755C604.074 341.18 617.855 358.224 615.796 374.935C614.861 382.475 611.281 390.506 614.829 397.222C619.344 405.792 632.412 406.14 637.908 414.108C642.866 421.315 639.001 431.944 631.794 436.917C624.587 441.891 615.304 442.509 606.561 442.113C597.817 441.717 588.947 440.529 580.425 442.43C571.032 444.552 563.001 450.35 553.988 453.898C532.493 462.515 507.323 457.715 487.46 445.883C467.596 434.05 452.137 415.961 438.704 397.096" fill="#131313"/>
</g>
<path d="M466.979 337.474C481.235 323.566 507.513 325.514 519.488 341.37C526.79 351.049 530.988 365.843 543.011 367.459C551.152 368.568 558.851 362.437 567.072 363.071C578.001 363.895 584.606 377.216 581.803 387.797C578.999 398.378 569.685 405.997 559.912 410.971C526.062 428.158 480.949 419.065 456.382 390.11" fill="#0C0C0C"/>
<path d="M144.286 372.876L162.613 346.898L138.774 329.997L122.079 363.911L143.193 372.654" fill="#F3F3F3"/>
<path d="M123.076 359.27L110.103 382.665C110.103 382.665 81.9714 377.343 79.1519 381.43L123.599 408.199L145.3 372.575L123.076 359.27Z" fill="#626262"/>
<g opacity="0.6">
<path opacity="0.6" d="M125.025 389.017C125.375 389.406 125.568 389.911 125.568 390.435C125.568 390.958 125.375 391.463 125.025 391.852C124.644 392.206 124.143 392.403 123.623 392.403C123.103 392.403 122.602 392.206 122.221 391.852C121.85 391.439 121.644 390.903 121.644 390.348C121.644 389.792 121.85 389.256 122.221 388.843C122.653 388.509 123.196 388.354 123.739 388.41C124.282 388.466 124.782 388.729 125.136 389.144" fill="#131313"/>
</g>
<g opacity="0.6">
<path opacity="0.6" d="M123.599 408.199L125.643 404.524L82.2569 380.242C82.2569 380.242 79.7542 379.909 79.0889 381.43L123.599 408.199Z" fill="#131313"/>
</g>
<path d="M109.517 382C109.407 382.222 110.42 382.982 111.101 384.313C111.782 385.643 111.782 386.91 112.02 386.958C112.258 387.005 112.717 385.532 111.893 383.932C111.07 382.333 109.597 381.778 109.517 382Z" fill="#2D2D2D"/>
<path d="M103.704 381.129C103.53 381.303 104.243 382.238 104.433 383.6C104.623 384.962 104.243 386.071 104.433 386.182C104.623 386.293 105.526 385.168 105.272 383.473C105.019 381.778 103.831 380.955 103.704 381.129Z" fill="#2D2D2D"/>
<path d="M97.6849 385.121C97.8591 385.279 98.8095 384.376 98.9679 382.855C99.1263 381.335 98.3976 380.242 98.2075 380.368C98.0174 380.495 98.2076 381.509 98.0967 382.76C97.9858 384.012 97.4948 384.962 97.6849 385.121Z" fill="#2D2D2D"/>
<path d="M113.065 376.994C113.065 377.248 114.222 377.549 115.394 378.372C116.566 379.196 117.295 380.162 117.516 380.036C117.738 379.909 117.295 378.594 115.932 377.644C114.57 376.693 113.065 376.773 113.065 376.994Z" fill="#2D2D2D"/>
<path d="M115.774 372.322C115.774 372.417 116.503 373.066 118.008 373.652C119.424 374.208 120.938 374.472 122.459 374.429C122.79 374.449 123.123 374.412 123.441 374.318C123.678 374.253 123.885 374.109 124.029 373.911C124.173 373.712 124.245 373.47 124.233 373.225C124.217 373.007 124.149 372.796 124.037 372.609C123.924 372.422 123.769 372.264 123.584 372.148C123.305 371.973 123 371.845 122.681 371.767C122.164 371.601 121.634 371.479 121.097 371.403C120.141 371.291 119.174 371.328 118.229 371.514C116.645 371.847 115.774 372.449 115.822 372.544C115.869 372.639 116.788 372.29 118.325 372.132C119.211 372.042 120.106 372.069 120.986 372.211C121.524 372.29 122.054 372.417 122.57 372.591C123.124 372.75 123.52 372.987 123.52 373.272C123.52 373.557 123.52 373.415 123.314 373.494C123.072 373.524 122.828 373.524 122.586 373.494C122.047 373.494 121.508 373.494 121.002 373.494C120.102 373.413 119.212 373.254 118.34 373.019C117.5 372.733 116.643 372.5 115.774 372.322Z" fill="#2D2D2D"/>
<path d="M115.869 372.813C115.869 372.892 116.82 372.369 117.754 371.007C118.29 370.211 118.682 369.326 118.911 368.393C119.055 367.839 119.14 367.271 119.164 366.699C119.219 366.332 119.18 365.958 119.05 365.612C118.919 365.265 118.702 364.958 118.42 364.719C118.227 364.593 118.001 364.525 117.77 364.525C117.54 364.525 117.314 364.593 117.121 364.719C116.842 364.904 116.596 365.134 116.392 365.4C116.019 365.848 115.714 366.35 115.489 366.889C115.115 367.801 114.968 368.79 115.062 369.772C115.236 371.356 115.98 372.243 116.044 372.179C115.883 371.415 115.761 370.643 115.679 369.867C115.678 368.997 115.867 368.137 116.234 367.348C116.446 366.888 116.723 366.461 117.057 366.081C117.406 365.653 117.818 365.384 117.96 365.542C118.1 365.703 118.203 365.893 118.26 366.099C118.318 366.304 118.329 366.52 118.293 366.73C118.297 367.263 118.239 367.795 118.119 368.314C117.941 369.183 117.637 370.021 117.216 370.801C116.487 372.037 115.774 372.702 115.869 372.813Z" fill="#2D2D2D"/>
<path d="M212.161 280.545L155.232 370.009L124.106 348.847L176.537 241.056" fill="#2D2D2D"/>
<path d="M207.552 260.919C207.314 261.014 209.025 264.657 209.832 269.457C210.64 274.256 210.308 278.248 210.561 278.279C211.722 272.299 210.651 266.1 207.552 260.855V260.919Z" fill="#4A4A4A"/>
<path d="M213.396 261.172C213.158 261.172 213.396 265.101 212.747 269.853C212.097 274.605 210.909 278.311 211.163 278.39C213.627 273.008 214.411 267.007 213.412 261.172H213.396Z" fill="#4A4A4A"/>
<path d="M434.158 280.275L473.204 268.221C520.312 328.207 517.16 394.118 441.334 433.131L399.215 385.96L434.158 280.275Z" fill="#2D2D2D"/>
<path d="M430.341 270.708C455.336 285.297 467.771 316.01 464.73 346.106C461.387 379.085 439.592 411.24 399.643 420.127L131.108 366.445C120.024 364.228 109.523 359.733 100.268 353.245C91.0129 346.757 83.2067 338.417 77.3438 328.753C71.481 319.09 67.6893 308.314 66.2092 297.109C64.7291 285.904 65.5928 274.513 68.7455 263.659C74.599 243.502 87.9954 226.377 106.15 215.842C124.304 205.308 145.82 202.175 166.225 207.094L430.341 270.708Z" fill="#878787"/>
<path d="M430.341 270.708L427.854 270.075L420.52 268.269L392.277 261.378L288.335 236.193L216.548 218.769L176.536 209.106L166.161 206.619L160.823 205.606C159.936 205.431 159.049 205.241 158.146 205.099L155.422 204.861C153.6 204.719 151.778 204.497 149.957 204.402H144.413C142.559 204.41 140.707 204.537 138.869 204.782L136.081 205.067L134.687 205.226L133.309 205.495L127.781 206.619C125.943 207.047 124.154 207.665 122.332 208.203C121.429 208.489 120.51 208.742 119.607 209.059L116.962 210.12L114.317 211.213C113.413 211.539 112.534 211.93 111.687 212.385L106.571 215.046C104.876 215.981 103.292 217.106 101.645 218.214C100.837 218.753 100.061 219.244 99.2213 219.798L96.9245 221.604L94.6119 223.426L93.4555 224.329L92.3943 225.342C80.3981 236.116 71.8235 250.17 67.7314 265.766C63.4984 281.948 64.3389 299.039 70.1391 314.727C76.1337 330.853 87.0226 344.7 101.28 354.327C107.296 358.394 113.834 361.628 120.716 363.942C127.559 366.334 134.671 367.38 141.593 368.837L182.777 377.058L261.407 392.866L399.5 420.412H399.643C406.683 418.753 413.519 416.326 420.029 413.173C432.056 407.131 442.359 398.145 449.982 387.053C453.416 381.981 456.334 376.58 458.694 370.928C459.265 369.566 459.708 368.156 460.278 366.794C460.808 365.454 461.257 364.084 461.625 362.691C462.021 361.313 462.401 359.951 462.781 358.588L463.636 354.518C463.951 353.186 464.189 351.837 464.349 350.478C464.523 349.148 464.713 347.817 464.888 346.503C465.062 345.188 465.078 343.873 465.173 342.574C465.268 341.275 465.347 339.992 465.331 338.725C465.531 329.419 464.215 320.142 461.435 311.259C459.238 304.141 456.038 297.372 451.931 291.158C448.922 286.585 445.345 282.412 441.286 278.739C440.462 278.01 439.702 277.266 438.958 276.664L436.772 275.001L434.934 273.591L433.35 272.561L430.42 270.724L433.303 272.641L434.887 273.686L436.724 275.112L438.815 276.775C439.56 277.393 440.304 278.121 441.128 278.866C445.149 282.55 448.688 286.728 451.661 291.3C455.741 297.502 458.915 304.255 461.086 311.354C463.822 320.207 465.111 329.445 464.904 338.709C464.904 339.976 464.904 341.259 464.745 342.543C464.587 343.826 464.587 345.14 464.428 346.455C464.27 347.77 464.08 349.084 463.89 350.415C463.728 351.763 463.49 353.101 463.177 354.423C462.892 355.753 462.607 357.115 462.322 358.478C462.037 359.84 461.545 361.17 461.165 362.548C460.791 363.934 460.341 365.298 459.819 366.635C459.312 367.982 458.869 369.376 458.235 370.722C455.882 376.336 452.974 381.701 449.555 386.736C445.811 392.004 441.509 396.853 436.724 401.198C431.544 405.649 425.868 409.486 419.807 412.635C413.344 415.761 406.555 418.162 399.564 419.794H399.69L261.645 392.043L182.952 376.298L141.768 368.061C134.83 366.588 127.733 365.558 121.001 363.182C114.19 360.902 107.72 357.705 101.772 353.678C87.6446 344.136 76.86 330.41 70.9311 314.427C65.185 298.897 64.35 281.976 68.5392 265.956C72.5817 250.511 81.0625 236.589 92.9329 225.913L93.9941 224.915L95.0871 224.139L97.368 222.349L99.649 220.559C100.409 219.973 101.233 219.497 102.057 218.975C103.641 217.961 105.225 216.836 106.92 215.918L111.988 213.272C112.833 212.836 113.7 212.445 114.586 212.1L117.216 211.039L119.845 209.962C120.732 209.661 121.635 209.407 122.538 209.138C124.344 208.615 126.118 207.982 127.939 207.554L133.404 206.445L134.766 206.16L136.16 206.018L138.916 205.732C140.738 205.482 142.574 205.35 144.413 205.336H149.893C151.715 205.431 153.521 205.653 155.311 205.796L158.019 206.033C158.906 206.16 159.793 206.35 160.68 206.524L165.955 207.522L176.378 209.883L216.374 219.497L288.177 236.811L392.166 261.679L420.457 268.491L427.822 270.233L430.341 270.708Z" fill="#2D2D2D"/>
<path d="M399.643 420.095L435.061 500.626C435.061 500.626 267.949 484.517 275.077 395.195L399.643 420.095Z" fill="#626262"/>
<path d="M303.874 240.232C303.874 240.232 384.23 162.268 486.335 195.104L430.309 270.708L303.874 240.232Z" fill="#626262"/>
<path d="M157.18 205.954C122.697 231.298 101.613 330.393 118.23 361.868C20.4969 333.276 -6.10352e-05 249.403 -6.10352e-05 249.403C70.6463 183.604 157.18 205.954 157.18 205.954Z" fill="#626262"/>
<path d="M0.0471191 249.372C0.0471191 249.372 0.237213 249.736 0.649048 250.433L2.50232 253.506L5.5278 258.511C6.12973 259.493 6.77911 260.555 7.46024 261.679L9.89957 265.164C11.6261 267.619 13.5111 270.375 15.6495 273.322L23.1102 282.572C24.5199 284.156 26.0406 285.74 27.5771 287.467C29.1135 289.193 30.6342 290.936 32.3291 292.583C35.8456 295.91 39.457 299.537 43.6704 302.879C52.6399 310.426 62.452 316.911 72.9111 322.204C78.7299 325.17 84.7415 327.742 90.9053 329.902C94.0733 331.058 97.3364 332.056 100.552 333.229C103.905 334.296 107.316 335.174 110.769 335.858C138.457 341.988 168.981 348.261 201.057 354.866C265.161 368.108 323.215 379.925 365.254 388.415L415.055 398.474L428.598 401.15L432.131 401.816C432.923 401.974 433.334 402.022 433.334 402.022L432.146 401.737L428.63 400.976L415.118 398.157L365.381 387.892L201.215 354.106C169.187 347.453 138.647 341.196 110.927 335.098C107.515 334.424 104.142 333.567 100.821 332.532C97.5423 331.328 94.2951 330.361 91.143 329.205C85.004 327.065 79.0139 324.52 73.2121 321.586C62.784 316.334 52.9896 309.909 44.019 302.436C39.8214 299.109 36.194 295.514 32.6934 292.203C30.9193 290.619 29.4145 288.766 27.8463 287.134C26.2782 285.503 24.7733 283.871 23.3636 282.271L15.8713 273.084C13.717 270.154 11.8163 267.413 10.058 264.99L7.60284 261.521L5.6387 258.353L2.54987 253.395C1.71036 252.08 1.07672 251.066 0.633209 250.354C0.189697 249.641 0.0471191 249.372 0.0471191 249.372Z" fill="#2D2D2D"/>
<path d="M254.342 391.156C254.342 391.156 254.453 391.061 254.627 390.839L255.404 389.857L258.302 386.055L260.393 383.283C261.122 382.254 261.851 381.081 262.674 379.846C264.258 377.375 266.254 374.619 268.044 371.356L270.974 366.287C271.988 364.529 272.875 362.596 273.873 360.648C275.948 356.783 277.738 352.458 279.718 347.976C287.878 328.147 292.571 307.063 293.594 285.645C293.721 280.719 293.943 276.046 293.705 271.659C293.61 269.473 293.705 267.35 293.467 265.323C293.23 263.295 293.119 261.347 292.96 259.494C292.723 255.771 292.105 252.445 291.709 249.514C291.471 248.057 291.313 246.695 291.075 245.443C290.838 244.192 290.584 243.083 290.363 242.054C289.935 240.058 289.602 238.506 289.349 237.302C289.238 236.811 289.143 236.415 289.064 236.082C288.985 235.749 288.953 235.67 288.937 235.686C288.927 235.828 288.927 235.971 288.937 236.114C288.937 236.43 289.064 236.842 289.143 237.333L289.998 242.085C290.188 243.115 290.41 244.24 290.648 245.475C290.885 246.711 290.996 248.089 291.202 249.562C291.551 252.492 292.121 255.803 292.327 259.509C292.469 261.363 292.628 263.311 292.77 265.323C292.913 267.334 292.897 269.457 292.96 271.659C293.166 276.03 292.96 280.687 292.786 285.598C291.715 306.921 287.062 327.912 279.021 347.691C277.073 352.189 275.315 356.514 273.271 360.363C272.273 362.311 271.402 364.228 270.42 366.002L267.537 371.071C265.795 374.349 263.862 377.121 262.294 379.608C261.486 380.86 260.71 382.032 260.061 383.077C259.411 384.123 258.651 385.026 258.049 385.881C256.861 387.465 255.942 388.843 255.261 389.778L254.564 390.807C254.477 390.914 254.402 391.031 254.342 391.156Z" fill="#2D2D2D"/>
<path d="M329.773 308.091L498.199 342.939C498.199 342.939 498.944 359.396 494.81 359.523C491.356 359.634 366.141 337.046 325.527 329.696C323.967 329.415 322.486 328.797 321.187 327.887C319.888 326.978 318.802 325.797 318.004 324.426C317.206 323.056 316.715 321.529 316.564 319.95C316.414 318.371 316.607 316.779 317.132 315.282C318.019 312.761 319.786 310.646 322.109 309.325C324.431 308.003 327.153 307.565 329.773 308.091Z" fill="#626262"/>
<path d="M160.541 292.539C160.512 271.876 178.509 255.1 200.738 255.069C222.968 255.038 241.011 271.763 241.04 292.427C241.069 313.09 223.072 329.866 200.843 329.897C178.614 329.928 160.57 313.202 160.541 292.539Z" fill="#272727"/>
<path d="M160.522 292.551C160.539 292.341 160.539 292.129 160.522 291.918C160.522 291.458 160.618 290.857 160.665 290.08C160.665 289.669 160.665 289.225 160.76 288.718C160.855 288.211 160.934 287.689 161.045 287.134C161.156 286.58 161.251 285.93 161.362 285.265C161.473 284.6 161.742 283.903 161.948 283.158C162.413 281.536 162.99 279.948 163.675 278.406C166.615 272.057 171.231 266.629 177.028 262.709C181.982 259.332 187.616 257.083 193.533 256.119C195.147 255.846 196.776 255.676 198.412 255.613C199.251 255.613 200.091 255.502 200.93 255.518L203.48 255.644H204.763L206.062 255.818L208.66 256.199L211.242 256.816L212.557 257.117L213.824 257.561C221.075 259.865 227.51 264.209 232.357 270.075C237.618 276.349 240.501 284.276 240.501 292.464C240.501 300.653 237.618 308.58 232.357 314.854C227.529 320.729 221.111 325.09 213.871 327.415L212.588 327.859L211.274 328.176L208.692 328.793L206.094 329.174L204.811 329.364H203.512L200.962 329.49C200.122 329.49 199.283 329.49 198.459 329.411C196.824 329.349 195.194 329.18 193.58 328.904C187.699 327.954 182.101 325.714 177.186 322.347C169.817 317.598 164.428 310.329 162.027 301.897C161.837 301.153 161.6 300.471 161.457 299.806C161.314 299.141 161.219 298.507 161.124 297.921C161.029 297.335 160.918 296.812 160.839 296.337C160.76 295.862 160.839 295.387 160.744 294.991C160.681 294.209 160.633 293.592 160.602 293.138C160.589 292.93 160.563 292.724 160.522 292.52C160.505 292.731 160.505 292.943 160.522 293.153V294.991C160.522 295.403 160.522 295.862 160.522 296.369C160.522 296.876 160.681 297.414 160.776 297.953C160.871 298.491 160.966 299.173 161.061 299.854C161.156 300.535 161.425 301.216 161.615 301.976C162.061 303.636 162.627 305.262 163.31 306.839C164.152 308.711 165.143 310.511 166.272 312.225C169.048 316.398 172.603 319.996 176.743 322.822C181.757 326.276 187.475 328.575 193.485 329.554C195.125 329.834 196.781 330.008 198.443 330.076C199.283 330.076 200.138 330.187 200.994 330.171L203.575 330.061H204.89L206.205 329.871L208.85 329.49L211.48 328.873L212.81 328.556L214.109 328.112C221.507 325.758 228.068 321.32 233.006 315.329C238.398 308.918 241.354 300.81 241.354 292.433C241.354 284.056 238.398 275.947 233.006 269.536C228.019 263.574 221.42 259.175 213.998 256.864L212.699 256.436L211.369 256.119L208.723 255.502L206.078 255.122L204.779 254.947H203.465L200.867 254.836C200.012 254.836 199.156 254.916 198.317 254.947C196.654 255.013 194.997 255.193 193.359 255.486C187.407 256.462 181.745 258.739 176.774 262.155C172.638 264.987 169.093 268.597 166.336 272.783C164.212 275.914 162.642 279.385 161.695 283.047C161.504 283.792 161.299 284.489 161.156 285.17C161.014 285.851 160.95 286.485 160.871 287.071C160.792 287.657 160.697 288.195 160.617 288.655C160.538 289.114 160.617 289.605 160.617 290.017C160.617 290.809 160.617 291.411 160.617 291.87C160.566 292.094 160.534 292.322 160.522 292.551Z" fill="#2D2D2D"/>
<path d="M337.17 196.244C350.111 195.611 356.495 205.368 363.734 207.332C370.972 209.296 378.877 209.645 385.83 206.825C394.859 203.151 401.021 194.834 408.925 189.148C424.765 177.727 448.288 178.408 463.462 190.732C463.811 199.365 456.429 206.192 449.285 211.039C442.142 215.886 422.357 222.855 419.776 231.124C417.875 237.302 431.212 242.497 427.854 248.025C424.496 253.553 413.392 252.999 407.262 251.938C368.581 245.285 382.156 257.117 370.181 256.024C370.181 256.024 345.106 249.688 325.448 246.425" fill="#4A4A4A"/>
<path d="M206.791 423.992L219.352 394.799L192.535 383.188L183.205 419.81L205.65 423.992" fill="#F3F3F3"/>
<path d="M183.221 415.058L175.301 440.64C175.301 440.64 146.678 441.242 144.762 445.835L193.866 462.832L207.726 423.485L183.221 415.058Z" fill="#626262"/>
<g opacity="0.6">
<path opacity="0.6" d="M191.267 443.76C191.689 444.069 191.983 444.522 192.091 445.034C192.199 445.545 192.115 446.079 191.854 446.532C191.565 446.965 191.122 447.27 190.615 447.385C190.108 447.5 189.576 447.416 189.129 447.15C188.681 446.824 188.37 446.345 188.256 445.803C188.142 445.262 188.233 444.697 188.511 444.219C188.859 443.796 189.357 443.524 189.901 443.462C190.445 443.4 190.992 443.552 191.426 443.887" fill="#131313"/>
</g>
<g opacity="0.6">
<path opacity="0.6" d="M193.866 462.832L195.101 458.808L147.581 444.014C147.581 444.014 145.062 444.204 144.777 445.835L193.866 462.832Z" fill="#131313"/>
</g>
<path d="M174.651 440.117C174.651 440.355 175.744 440.877 176.647 442.05C177.55 443.222 177.851 444.457 178.105 444.441C178.358 444.425 178.469 442.857 177.344 441.511C176.22 440.165 174.683 439.879 174.651 440.117Z" fill="#2D2D2D"/>
<path d="M168.775 440.449C168.648 440.671 169.535 441.432 169.995 442.73C170.454 444.029 170.327 445.17 170.565 445.249C170.803 445.328 171.436 444.013 170.834 442.414C170.232 440.814 168.854 440.228 168.775 440.449Z" fill="#2D2D2D"/>
<path d="M163.722 445.597C163.928 445.724 164.673 444.647 164.514 443.11C164.356 441.574 163.405 440.687 163.247 440.845C163.089 441.004 163.516 441.954 163.627 443.205C163.738 444.457 163.485 445.486 163.722 445.597Z" fill="#2D2D2D"/>
<path d="M177.091 434.478C177.091 434.731 178.327 434.779 179.657 435.349C180.988 435.919 181.875 436.696 182.081 436.537C182.287 436.379 181.558 435.175 179.99 434.526C178.422 433.876 177.044 434.256 177.091 434.478Z" fill="#2D2D2D"/>
<path d="M178.77 429.346C179.499 429.851 180.355 430.141 181.241 430.185C182.178 430.331 183.13 430.368 184.076 430.296C184.636 430.243 185.191 430.153 185.739 430.027C186.072 429.977 186.393 429.87 186.69 429.71C186.905 429.594 187.077 429.41 187.177 429.187C187.278 428.963 187.301 428.713 187.244 428.475C187.178 428.265 187.066 428.074 186.915 427.914C186.764 427.755 186.578 427.633 186.373 427.556C186.065 427.453 185.746 427.389 185.422 427.366C184.853 427.318 184.281 427.318 183.712 427.366C182.752 427.45 181.811 427.686 180.924 428.063C179.34 428.728 178.722 429.488 178.786 429.568C178.849 429.647 179.688 429.124 181.146 428.649C181.992 428.375 182.871 428.215 183.759 428.174C184.286 428.134 184.816 428.134 185.343 428.174C185.913 428.174 186.357 428.364 186.404 428.633C186.452 428.902 186.404 428.775 186.246 428.902C186.03 429.007 185.801 429.081 185.565 429.124C185.044 429.259 184.515 429.36 183.981 429.425C183.088 429.535 182.186 429.562 181.288 429.504C180.453 429.396 179.612 429.343 178.77 429.346Z" fill="#2D2D2D"/>
<path d="M178.96 429.805C178.96 429.805 179.815 429.172 180.433 427.651C180.797 426.759 181.001 425.81 181.035 424.847C181.052 424.275 181.015 423.702 180.924 423.137C180.908 422.766 180.794 422.407 180.594 422.095C180.394 421.783 180.114 421.531 179.784 421.363C179.567 421.289 179.333 421.28 179.111 421.336C178.889 421.392 178.688 421.511 178.532 421.679C178.304 421.925 178.112 422.203 177.962 422.503C177.694 423 177.502 423.534 177.392 424.087C177.197 425.051 177.251 426.049 177.55 426.986C178.073 428.57 178.976 429.219 179.023 429.156C178.694 428.395 178.403 427.618 178.152 426.827C177.971 425.982 177.971 425.107 178.152 424.261C178.266 423.769 178.447 423.294 178.691 422.851C178.944 422.36 179.293 422.012 179.467 422.123C179.637 422.255 179.777 422.422 179.875 422.614C179.974 422.806 180.029 423.016 180.037 423.232C180.138 423.754 180.191 424.284 180.196 424.816C180.19 425.7 180.062 426.58 179.815 427.429C179.419 428.918 178.849 429.726 178.96 429.805Z" fill="#2D2D2D"/>
<path d="M335.047 197.21C335.047 197.21 358.285 243.226 342.666 254.013C327.048 264.8 254.105 319.606 254.105 319.606L216.897 418.97L182.049 404.714L211.084 288.417L284.391 222.554L335.047 197.21Z" fill="#2D2D2D"/>
<path d="M245.567 301.375C245.361 301.533 247.769 304.733 249.559 309.295C251.349 313.856 251.84 317.801 252.093 317.769C251.983 311.692 249.663 305.864 245.567 301.375Z" fill="#4A4A4A"/>
<path d="M251.317 300.424C251.08 300.424 252.125 304.257 252.474 309.041C252.822 313.824 252.474 317.705 252.68 317.737C253.445 314.884 253.654 311.91 253.297 308.977C253.204 306.024 252.532 303.118 251.317 300.424Z" fill="#4A4A4A"/>
<path d="M213.38 417.482C213.475 417.328 213.55 417.163 213.602 416.991C213.761 416.626 213.951 416.135 214.204 415.502C214.743 414.155 215.487 412.239 216.453 409.768C218.37 404.762 221.205 397.476 224.5 388.384C227.795 379.291 231.834 368.378 236 356.054C237.045 352.981 238.075 349.797 239.089 346.55C240.102 343.303 241.037 339.929 242.399 336.603C245.06 329.997 248.244 323.313 251.729 316.533L251.618 316.644C255.531 313.334 259.665 309.865 263.91 306.38C267.221 303.655 270.5 300.978 273.81 298.46L283.631 291.015C290.062 286.12 296.303 281.416 302.338 277.123C308.373 272.831 314.329 269.061 319.762 265.307C324.888 261.921 329.697 258.077 334.129 253.823C336.065 251.947 337.776 249.852 339.229 247.582C340.499 245.529 341.44 243.289 342.017 240.945C342.878 237.186 342.926 233.287 342.16 229.508C341.691 227.135 341.013 224.808 340.132 222.555C339.847 221.778 339.578 221.208 339.419 220.812C339.343 220.608 339.247 220.412 339.134 220.226C339.134 220.226 339.134 220.448 339.34 220.844C339.546 221.24 339.72 221.826 339.974 222.602C340.781 224.872 341.406 227.203 341.843 229.572C342.538 233.304 342.441 237.141 341.558 240.834C340.977 243.125 340.042 245.311 338.786 247.312C337.329 249.528 335.629 251.573 333.717 253.411C329.276 257.606 324.474 261.402 319.366 264.752C313.917 268.459 307.914 272.197 301.863 276.506C295.812 280.814 289.555 285.471 283.108 290.366L273.287 297.81C269.945 300.345 266.666 303.022 263.356 305.73C259.111 309.231 254.976 312.7 251.064 316.026V316.106C247.579 322.917 244.395 329.617 241.734 336.27C240.465 339.532 239.365 342.858 238.439 346.233C237.441 349.496 236.412 352.664 235.398 355.737C231.28 368.061 227.351 378.975 224.072 388.098L216.247 409.562C215.345 412.048 214.663 413.997 214.141 415.359L213.618 416.943C213.514 417.11 213.434 417.292 213.38 417.482Z" fill="#4A4A4A"/>
<path d="M306.393 211.942L261.47 218.31L238.439 224.17L269.976 235.48L306.393 211.942Z" fill="#2D2D2D"/>
<path d="M361.389 208.695C361.647 209.097 361.962 209.46 362.324 209.772C363.228 210.699 364.191 211.566 365.207 212.369C371.917 217.74 380.002 221.116 388.539 222.111C389.821 222.269 391.112 222.343 392.404 222.333C392.881 222.382 393.363 222.349 393.83 222.238C393.83 222.095 391.818 222.032 388.618 221.525C384.456 220.884 380.387 219.741 376.501 218.119C372.618 216.487 368.943 214.397 365.555 211.894C362.957 209.978 361.484 208.6 361.389 208.695Z" fill="#2D2D2D"/>
<path d="M329.139 142.927L337.804 208.061C337.804 208.061 309.007 206.176 288.7 212.924C268.393 219.672 255.911 219.482 255.911 219.482L260.156 178.963L244.997 145.699L238.328 184.586L207.187 216.646L186.896 212.053L207.932 176.825L222.536 105.038C223.768 99.0536 227.01 93.671 231.723 89.7837L232.309 89.3085L262.88 72.2646L273.145 72.4706C281.819 72.6598 290.464 73.5497 298.996 75.1317C304.321 76.1224 309.207 78.74 312.982 82.624C316.38 86.4393 318.828 91.004 320.126 95.9455L329.139 142.927Z" fill="#626262"/>
<path d="M232.024 115.682C232.21 116.407 232.464 117.112 232.784 117.789L235.097 123.365C237.093 128.117 239.849 134.532 243.017 141.66L251.127 159.892C252.141 162.093 252.996 163.931 253.646 165.388C253.931 166.071 254.264 166.733 254.644 167.368C254.501 166.639 254.267 165.931 253.947 165.261C253.424 163.915 252.648 162.014 251.666 159.654C249.701 154.902 246.914 148.471 243.746 141.327C240.578 134.183 237.711 127.768 235.588 123.127L233.022 117.646C232.758 116.959 232.424 116.3 232.024 115.682Z" fill="#2D2D2D"/>
<path d="M318.431 104.341C312.475 120.941 301.007 158.846 295.431 173.466C293.719 177.902 290.854 181.801 287.131 184.76L225.355 228.463L211.099 209.914L257.4 165.245L282.363 91.2884C285.88 81.4201 300.469 76.0662 309.529 81.3409C316.404 85.4118 321.108 96.7374 318.431 104.341Z" fill="#626262"/>
<path d="M281.16 94.3613C281.16 94.3613 280.986 94.789 280.685 95.6285L279.354 99.3984C278.214 102.741 276.534 107.572 274.428 113.734L257.004 165.134L257.099 164.992L210.719 209.613L210.466 209.867L210.688 210.152L220.952 223.505C222.33 225.279 223.692 227.069 224.959 228.716L225.197 229.033L225.53 228.795L272.955 194.629L283.583 186.978L286.134 185.14C287.001 184.549 287.827 183.898 288.605 183.192C290.113 181.783 291.433 180.186 292.533 178.44C293.585 176.771 294.451 174.992 295.115 173.134L297.158 167.875C298.457 164.437 299.693 161.127 300.833 157.943C305.379 145.271 308.753 134.912 311.002 127.752C312.111 124.188 312.966 121.416 313.568 119.499C313.838 118.581 314.059 117.915 314.202 117.345C314.278 117.1 314.342 116.852 314.392 116.601C314.392 116.601 314.297 116.838 314.123 117.329C313.949 117.82 313.727 118.549 313.41 119.452C312.792 121.353 311.826 124.109 310.701 127.657C308.341 134.785 304.92 145.081 300.294 157.753C299.138 160.921 297.887 164.216 296.572 167.653C295.891 169.364 295.21 171.122 294.513 172.896C293.853 174.71 292.998 176.447 291.963 178.076C290.881 179.751 289.593 181.284 288.129 182.638C287.375 183.325 286.57 183.955 285.722 184.523L283.156 186.36L272.495 194.042L224.975 228.146H225.53L221.522 222.935L211.258 209.597V210.136L257.542 165.53V165.451C264.67 144.115 270.579 126.39 274.729 113.955L279.481 99.5568L280.7 95.7711C281.049 94.8048 281.16 94.3613 281.16 94.3613Z" fill="#2D2D2D"/>
<path d="M287.068 85.3327C287.163 85.4278 288.193 84.3506 290.236 83.0993C292.844 81.4593 295.832 80.5204 298.909 80.3733C301.987 80.2262 305.05 80.876 307.803 82.2597C309.925 83.3052 311.05 84.2873 311.145 84.1764C310.313 83.1471 309.263 82.3142 308.072 81.737C305.272 80.1549 302.082 79.3972 298.87 79.5513C295.658 79.7055 292.555 80.7653 289.919 82.6082C288.784 83.3005 287.811 84.2298 287.068 85.3327Z" fill="#2D2D2D"/>
<path d="M206.569 177.791C206.569 178.044 209.5 177.791 212.905 178.583C216.311 179.375 218.766 180.99 218.909 180.769C217.316 179.209 215.29 178.166 213.095 177.775C210.969 177.113 208.692 177.119 206.569 177.791Z" fill="#2D2D2D"/>
<path d="M310.305 129.304C310.505 129.38 310.712 129.433 310.923 129.463C311.487 129.586 312.059 129.676 312.634 129.732C314.541 129.93 316.469 129.807 318.336 129.368C320.76 128.724 323.011 127.55 324.925 125.93C325.095 125.8 325.249 125.652 325.385 125.487C323.233 127.075 320.821 128.276 318.257 129.035C315.638 129.555 312.953 129.645 310.305 129.304Z" fill="#272727"/>
<path d="M305.49 143.433C306.433 142.802 307.411 142.225 308.42 141.707C310.911 140.547 313.598 139.864 316.34 139.695C319.081 139.526 321.83 139.584 324.561 139.869L327.048 140.107C327.354 140.128 327.661 140.128 327.967 140.107C327.673 140.018 327.37 139.96 327.064 139.933C326.478 139.838 325.638 139.727 324.577 139.6C321.842 139.238 319.078 139.142 316.324 139.315C313.569 139.499 310.878 140.225 308.404 141.453C307.659 141.833 306.949 142.279 306.282 142.784C305.99 142.964 305.723 143.182 305.49 143.433Z" fill="#272727"/>
<g opacity="0.4">
<path opacity="0.4" d="M313.474 119.436C313.474 119.436 311.89 144.21 310.036 155.662C308.183 167.114 304.572 178.773 296.366 186.962C288.161 195.151 276.376 198.858 264.924 201.218C268.631 198.43 272.242 195.563 275.806 192.601C280.384 188.799 287.1 185.077 290.791 180.388C297.887 171.375 299.424 159.986 303.083 149.12C306.441 139.078 310.1 129.526 313.474 119.499" fill="black"/>
</g>
<path d="M270.452 129.098C270.849 129.38 271.287 129.599 271.751 129.748C273.021 130.197 274.365 130.401 275.711 130.35C279.116 130.35 283.631 128.766 288.763 129.225C293.129 129.563 297.355 130.92 301.102 133.185C302.233 133.875 303.317 134.637 304.349 135.466L305.173 136.163C305.363 136.321 305.474 136.401 305.474 136.385C304.219 135.063 302.791 133.918 301.229 132.979C297.469 130.633 293.198 129.231 288.779 128.892C283.583 128.401 279.037 130.096 275.711 130.112C274.389 130.187 273.064 130.026 271.798 129.637C270.911 129.415 270.468 129.098 270.452 129.098Z" fill="#272727"/>
<path d="M275.046 117.139C275.144 117.218 275.25 117.287 275.362 117.345L276.265 117.868C277.057 118.327 278.229 118.929 279.702 119.626C287.436 123.246 295.83 125.241 304.365 125.487C305.949 125.487 307.327 125.487 308.23 125.487H309.276C309.397 125.498 309.519 125.498 309.64 125.487H309.276H308.23C307.327 125.487 305.997 125.487 304.381 125.408C300.149 125.222 295.943 124.639 291.82 123.665C287.696 122.673 283.672 121.305 279.798 119.579C278.324 118.913 277.136 118.327 276.329 117.995L275.394 117.52C275.172 117.171 275.061 117.123 275.046 117.139Z" fill="#272727"/>
<path d="M239.96 130.128L240.388 130.033C240.796 129.919 241.198 129.781 241.591 129.621C243.017 128.993 244.324 128.125 245.456 127.055C248.466 124.489 251.238 119.673 255.911 115.967C261.112 111.816 267.385 109.228 274 108.506L275.251 108.38C275.393 108.406 275.538 108.406 275.679 108.38C273.544 108.373 271.416 108.629 269.343 109.14C264.342 110.308 259.666 112.581 255.657 115.793C253.485 117.59 251.514 119.619 249.781 121.844C248.397 123.662 246.883 125.377 245.25 126.976C244.143 128.045 242.87 128.927 241.481 129.589C240.546 129.969 239.944 130.08 239.96 130.128Z" fill="#272727"/>
<path d="M241.813 137.684C242.264 137.584 242.708 137.458 243.144 137.304C244.292 136.819 245.361 136.162 246.312 135.355C247.717 134.144 249.016 132.814 250.192 131.38C251.63 129.656 253.221 128.066 254.944 126.628C256.709 125.23 258.814 124.328 261.043 124.014C262.859 123.759 264.699 123.722 266.523 123.903C268.107 124.046 269.359 124.236 270.23 124.347L271.244 124.489C271.359 124.507 271.477 124.507 271.592 124.489C271.488 124.439 271.375 124.407 271.26 124.394L270.262 124.188C269.391 124.03 268.123 123.808 266.555 123.65C264.709 123.412 262.841 123.412 260.995 123.65C258.678 123.936 256.486 124.857 254.659 126.311C252.92 127.778 251.328 129.412 249.907 131.19C248.739 132.611 247.468 133.945 246.106 135.181C245.152 135.996 244.085 136.669 242.938 137.177C242.272 137.51 241.813 137.652 241.813 137.684Z" fill="#272727"/>
<path d="M217.547 132.583C218.691 132.273 219.88 132.155 221.063 132.235C222.346 132.347 223.609 132.629 224.817 133.074C226.179 133.55 227.637 134.247 229.173 134.944C230.615 135.623 232.122 136.154 233.672 136.528C234.954 136.825 236.278 136.894 237.584 136.733C238.466 136.613 239.32 136.334 240.103 135.91C240.356 135.776 240.595 135.617 240.815 135.435C239.801 136.048 238.666 136.436 237.489 136.575C236.216 136.705 234.93 136.614 233.687 136.306C232.16 135.926 230.675 135.395 229.252 134.722C227.668 134.025 226.243 133.344 224.849 132.868C223.612 132.434 222.323 132.168 221.015 132.076C220.131 132.023 219.244 132.109 218.386 132.33C218.098 132.383 217.816 132.468 217.547 132.583Z" fill="#272727"/>
<path d="M215.043 141.2C216.309 140.247 217.832 139.695 219.415 139.616C221.119 139.559 222.814 139.867 224.389 140.519C226.301 141.372 228.113 142.434 229.79 143.687C231.483 144.951 233.279 146.069 235.16 147.029C236.722 147.794 238.416 148.251 240.15 148.376C241.318 148.444 242.488 148.272 243.587 147.869C243.991 147.717 244.374 147.514 244.728 147.267C243.313 147.962 241.737 148.263 240.166 148.138C238.468 147.985 236.814 147.517 235.287 146.76C233.436 145.782 231.662 144.664 229.981 143.418C228.278 142.16 226.44 141.097 224.5 140.25C222.883 139.596 221.142 139.304 219.399 139.395C218.225 139.462 217.081 139.798 216.057 140.377C215.683 140.603 215.342 140.88 215.043 141.2Z" fill="#272727"/>
<g opacity="0.4">
<path opacity="0.4" d="M241.386 166.703C238.218 153.73 237.521 139.68 237.061 126.327C238.186 130.999 241.053 135.039 242.827 139.521C243.682 141.644 245.029 145.509 245.029 145.509L241.449 166.386" fill="black"/>
</g>
<path d="M262.294 14.1001C262.47 15.2959 262.973 16.4198 263.747 17.3478C264.521 18.2759 265.537 18.9719 266.682 19.359C267.981 19.7867 269.406 19.7867 270.69 20.2777C271.349 20.4642 271.926 20.8705 272.324 21.4293C272.721 21.9882 272.916 22.666 272.875 23.3506C272.654 24.3644 271.719 25.0139 270.959 25.695C270.199 26.3761 269.502 27.4532 269.945 28.3719C270.389 29.2907 271.893 29.4807 272.654 30.3202C273.001 30.8055 273.173 31.3944 273.141 31.9902C273.11 32.5861 272.876 33.1535 272.479 33.5991C271.661 34.4699 270.716 35.2122 269.676 35.8009C268.63 36.401 267.858 37.3833 267.522 38.5412" fill="#2D2D2D"/>
<path d="M215.313 34.6762C211.828 27.3106 214.362 18.1393 219.795 12.0567C225.228 5.97416 233.022 2.55272 240.847 0.287602C241.971 -0.0291978 243.365 -0.266803 244.157 0.604397C244.453 1.026 244.595 1.53703 244.557 2.05088C244.52 2.56474 244.306 3.04983 243.951 3.42393C243.218 4.15947 242.315 4.70344 241.322 5.00793C244.482 3.35751 247.962 2.41179 251.523 2.23593C252.769 2.14057 254.017 2.40442 255.119 2.99624C255.655 3.31098 256.079 3.78573 256.332 4.35389C256.585 4.92205 256.653 5.5551 256.528 6.16424C256.435 6.46301 256.27 6.73481 256.05 6.95664C255.829 7.17847 255.557 7.34379 255.259 7.43859C254.961 7.53339 254.644 7.55488 254.335 7.50125C254.027 7.44761 253.736 7.32044 253.487 7.13048C256.877 6.76239 260.291 7.56141 263.165 9.3956C265.193 10.6945 267.046 12.9438 266.555 15.3039C266.039 16.6202 265.446 17.9053 264.781 19.153C263.941 21.6082 265.161 24.2377 266.096 26.6454C267.646 30.3895 268.192 34.4737 267.68 38.4937C267.415 40.5015 266.71 42.426 265.615 44.1293C264.519 45.8327 263.061 47.2726 261.344 48.3461" fill="#2D2D2D"/>
<path d="M263.894 96.7848C265.985 96.2244 267.942 95.2513 269.651 93.9228C271.36 92.5942 272.785 90.9372 273.843 89.0492C274.902 87.1612 275.572 85.0805 275.814 82.9296C276.055 80.7788 275.864 78.6012 275.251 76.5254L260.71 27.2947C259.909 24.2899 258.514 21.4763 256.607 19.0203C254.699 16.5644 252.318 14.5159 249.605 12.9962C246.892 11.4765 243.902 10.5164 240.812 10.1727C237.721 9.82904 234.593 10.1088 231.612 10.9953L230.472 11.4071C224.939 13.4085 220.363 17.418 217.651 22.6389C214.939 27.8597 214.291 33.9097 215.835 39.5865C218.829 50.5319 222.282 62.602 224.421 68.2886C228.84 80.0577 241.322 77.6183 241.322 77.6183L244.395 86.4412C245.737 90.31 248.494 93.5274 252.111 95.4463C255.729 97.3652 259.938 97.8434 263.894 96.7848Z" fill="#F3F3F3"/>
<path d="M241.243 77.4602C246.737 75.5894 251.551 72.1268 255.071 67.5127C255.071 67.5127 254.501 77.3335 242.399 80.5332L241.243 77.4602Z" fill="#EEE6E1"/>
<path d="M243.476 18.2187C244.442 16.0961 245.662 11.4709 247.309 9.80765C248.957 8.14445 251.634 8.69885 253.883 9.33245C255.041 9.66815 256.103 10.274 256.982 11.1001C257.86 11.9262 258.53 12.949 258.936 14.0844C262.104 22.5905 262.421 30.6373 264.733 39.0008C264.944 39.5455 264.994 40.1394 264.876 40.7115C264.433 42.1213 262.88 42.6281 261.407 42.8499C257.78 43.3726 255.926 40.7273 254.216 37.5435C253.64 35.6154 253.217 33.6452 252.948 31.651C252.746 28.8536 251.811 26.1587 250.237 23.837C248.664 21.5154 246.507 19.6487 243.983 18.4246L243.476 18.2187Z" fill="#2D2D2D"/>
<path d="M258.667 34.0583C258.825 33.8999 265.922 28.7202 268.583 36.8936C271.244 45.0671 262.484 46.065 262.389 45.8274C262.294 45.5898 258.667 34.0583 258.667 34.0583Z" fill="#F3F3F3"/>
<path d="M263.878 41.9784C263.878 41.9784 264.053 41.9784 264.338 42.0734C264.725 42.0984 265.109 41.98 265.415 41.7408C265.832 41.2334 266.107 40.6239 266.21 39.9751C266.313 39.3263 266.241 38.6617 266.001 38.05C265.793 37.3406 265.431 36.6861 264.94 36.1334C264.778 35.9049 264.565 35.7181 264.317 35.5886C264.069 35.4591 263.794 35.3907 263.514 35.3889C263.338 35.4044 263.172 35.4783 263.043 35.5989C262.914 35.7194 262.829 35.8797 262.801 36.0542C262.801 36.3235 262.801 36.466 262.801 36.4977C262.801 36.5294 262.58 36.4185 262.532 36.0542C262.515 35.8364 262.57 35.619 262.69 35.4364C262.776 35.3158 262.884 35.2131 263.009 35.1342C263.134 35.0554 263.273 35.002 263.419 34.9771C263.777 34.9369 264.139 34.9886 264.472 35.1271C264.804 35.2657 265.096 35.4866 265.32 35.7691C265.892 36.3643 266.315 37.0861 266.555 37.8758C266.83 38.5924 266.888 39.3739 266.722 40.1231C266.555 40.8722 266.173 41.556 265.621 42.0893C265.424 42.2239 265.199 42.3124 264.963 42.3481C264.727 42.3837 264.486 42.3656 264.259 42.2952C263.958 42.1209 263.863 41.9784 263.878 41.9784Z" fill="#EEE6E1"/>
<path d="M246.628 19.9765C242.605 17.2203 238.455 18.5825 235.683 20.1982C232.911 21.8139 230.567 24.0949 227.763 25.568C224.959 27.0411 221.205 27.548 218.671 25.568C217.777 24.7688 217.058 23.7934 216.559 22.703C216.061 21.6126 215.793 20.4309 215.772 19.232C215.592 16.9503 215.866 14.6555 216.578 12.4804C217.291 10.3053 218.427 8.29303 219.922 6.55998C220.699 5.6571 221.902 4.7859 222.995 5.2611C224.342 5.86302 224.12 7.82719 223.692 9.23695C223.692 9.23695 237.441 4.15231 245.868 7.08271C254.295 10.0131 246.628 19.9765 246.628 19.9765Z" fill="#2D2D2D"/>
<path d="M241.465 0.129395C241.465 0.129395 241.306 0.731315 240.879 1.71339C240.233 3.07913 239.347 4.31831 238.265 5.37243C236.658 6.93879 234.807 8.23344 232.784 9.20571C231.591 9.76642 230.337 10.1864 229.046 10.4571C227.7 10.758 226.258 10.964 224.801 11.36C223.34 11.7181 221.98 12.4063 220.825 13.3716C219.766 14.292 218.946 15.4551 218.433 16.7614C217.964 17.948 217.796 19.2321 217.942 20.4996C218.087 21.5919 218.488 22.6343 219.115 23.5409C220.007 24.8619 221.318 25.844 222.837 26.3288C223.25 26.4453 223.675 26.5092 224.104 26.5188C224.389 26.5188 224.548 26.5188 224.548 26.5188C224.548 26.5188 223.93 26.5188 222.964 26.0912C221.567 25.5444 220.38 24.5682 219.574 23.3033C219.027 22.441 218.68 21.4665 218.56 20.4521C218.45 19.2912 218.63 18.121 219.083 17.0465C219.563 15.827 220.329 14.7406 221.316 13.8785C222.386 13.0074 223.636 12.3852 224.975 12.0569C226.369 11.6768 227.811 11.455 229.189 11.1382C230.528 10.8502 231.826 10.398 233.054 9.79179C235.129 8.76828 237.011 7.3907 238.614 5.72091C239.705 4.60054 240.557 3.26923 241.116 1.80843C241.267 1.41042 241.368 0.995494 241.417 0.572913C241.461 0.429399 241.477 0.278909 241.465 0.129395Z" fill="#4A4A4A"/>
<path d="M250.541 2.6001C250.541 2.6001 250.335 3.20202 249.876 4.1841C249.189 5.60666 248.231 6.88177 247.056 7.93818C245.293 9.48977 243.227 10.66 240.99 11.3755C238.223 12.241 235.396 12.8976 232.531 13.3396C229.608 13.7603 226.756 14.5811 224.057 15.779C222.837 16.3664 221.858 17.3568 221.285 18.5827C220.863 19.6804 220.797 20.8825 221.094 22.0199C221.563 23.6287 222.606 25.0095 224.025 25.9007C224.394 26.1452 224.787 26.3522 225.197 26.5185C225.336 26.5892 225.486 26.6373 225.641 26.661C225.641 26.661 225.086 26.3442 224.183 25.6631C222.91 24.7527 221.996 23.4242 221.601 21.909C221.348 20.8936 221.42 19.8241 221.807 18.8519C222.343 17.7653 223.239 16.8977 224.342 16.3967C226.995 15.2664 229.786 14.4888 232.642 14.0841C235.54 13.6329 238.395 12.9441 241.18 12.0249C243.485 11.2614 245.598 10.0077 247.373 8.35001C248.558 7.21825 249.486 5.84653 250.098 4.32666C250.259 3.91691 250.381 3.49256 250.462 3.05946C250.52 2.91355 250.547 2.75707 250.541 2.6001Z" fill="#4A4A4A"/>
<path d="M223.724 45.2733C223.884 45.7534 224.225 46.1518 224.675 46.3828C225.126 46.6138 225.648 46.6591 226.132 46.5088C226.373 46.4484 226.6 46.3398 226.799 46.1897C226.998 46.0396 227.164 45.851 227.288 45.6352C227.412 45.4193 227.492 45.1806 227.522 44.9334C227.552 44.6861 227.531 44.4354 227.462 44.1962C227.299 43.7143 226.955 43.3146 226.503 43.0812C226.051 42.8478 225.526 42.7989 225.039 42.9448C224.798 43.0088 224.572 43.1202 224.375 43.2727C224.178 43.4251 224.014 43.6153 223.891 43.8322C223.769 44.0492 223.691 44.2884 223.662 44.5359C223.633 44.7833 223.654 45.0341 223.724 45.2733Z" fill="#2D2D2D"/>
<path d="M220.223 44.228C220.54 44.3864 221.57 42.8816 223.566 42.2005C225.562 41.5193 227.336 41.9945 227.462 41.6777C227.589 41.3609 227.161 41.1867 226.354 40.9491C225.298 40.6549 224.178 40.6915 223.144 41.0541C222.11 41.4167 221.212 42.0877 220.572 42.9766C220.112 43.6577 220.065 44.1646 220.223 44.228Z" fill="#2D2D2D"/>
<path d="M243.302 39.634C243.465 40.1153 243.81 40.5139 244.262 40.7448C244.715 40.9756 245.24 41.0204 245.725 40.8695C245.966 40.8074 246.191 40.6976 246.388 40.5467C246.585 40.3959 246.75 40.207 246.872 39.9913C246.995 39.7757 247.073 39.5376 247.102 39.2912C247.131 39.0448 247.11 38.7951 247.04 38.5569C246.88 38.0763 246.54 37.6768 246.09 37.4432C245.641 37.2096 245.118 37.1602 244.633 37.3055C244.39 37.3678 244.163 37.478 243.964 37.6297C243.765 37.7813 243.599 37.9714 243.475 38.1885C243.351 38.4056 243.272 38.6454 243.242 38.8937C243.212 39.142 243.233 39.3937 243.302 39.634Z" fill="#2D2D2D"/>
<path d="M239.817 37.8282C240.134 38.0024 241.164 36.4818 243.144 35.8006C245.124 35.1195 246.929 35.5947 247.056 35.2779C247.183 34.9611 246.739 34.7869 245.947 34.5493C244.905 34.2626 243.799 34.3013 242.779 34.6602C241.748 35.0129 240.855 35.684 240.229 36.5768C239.722 37.2262 239.675 37.7648 239.817 37.8282Z" fill="#2D2D2D"/>
<path d="M237.647 55.0306C236.489 55.0672 235.34 55.2481 234.226 55.5692C233.703 55.6959 233.196 55.7593 232.99 55.4425C232.772 54.9447 232.706 54.3936 232.8 53.8585C232.8 52.4645 232.911 51.0073 232.959 49.4866C233.217 45.7402 233.169 41.9789 232.816 38.2402C232.272 41.9584 232.018 45.7132 232.056 49.4708C232.056 51.0548 232.056 52.4487 232.056 53.8426C231.945 54.5632 232.097 55.2996 232.484 55.9177C232.617 56.0704 232.783 56.191 232.97 56.2706C233.156 56.3501 233.358 56.3865 233.561 56.377C233.872 56.3725 234.181 56.3245 234.479 56.2345C235.581 55.9643 236.645 55.56 237.647 55.0306Z" fill="#2D2D2D"/>
<path d="M243.983 54.3814C243.667 54.3814 244.411 56.6149 243.096 58.7849C241.782 60.955 239.406 61.5094 239.501 61.8262C239.596 62.143 240.15 62.0638 241.085 61.8262C242.351 61.4073 243.428 60.5546 244.126 59.4185C244.803 58.3327 245.025 57.0237 244.744 55.7753C244.601 54.7616 244.189 54.3181 243.983 54.3814Z" fill="#2D2D2D"/>
<path d="M236.602 30.2412C236.998 30.7164 238.883 29.7818 241.354 29.2433C243.825 28.7047 245.868 28.7047 246.011 28.1186C246.011 27.8335 245.567 27.4375 244.633 27.1841C243.402 26.8848 242.12 26.872 240.884 27.1466C239.648 27.4212 238.492 27.976 237.505 28.7681C236.713 29.4492 236.428 30.0194 236.602 30.2412Z" fill="#2D2D2D"/>
<path d="M218.94 38.2403C219.447 38.5729 220.651 37.6384 222.282 37.0364C223.914 36.4345 225.45 36.292 225.577 35.7059C225.577 35.4366 225.26 35.0564 224.516 34.8347C223.521 34.6128 222.484 34.6882 221.532 35.0515C220.58 35.4148 219.756 36.05 219.162 36.878C218.75 37.5433 218.639 38.0819 218.94 38.2403Z" fill="#2D2D2D"/>
<path d="M256.275 213.985C254.506 214.629 253.025 215.882 252.096 217.519C251.167 219.156 250.852 221.07 251.206 222.919L261.914 227.148L264.354 216.852L256.275 213.985Z" fill="#4A4A4A"/>
<path d="M346.151 213.953C346.151 213.953 324.72 211.736 311.303 216.472C297.887 221.208 281.096 224.74 273.699 223.077C269.739 222.111 266.199 219.888 263.609 216.741C263.609 216.741 284.961 214.175 295.02 210.928C301.783 208.742 315.152 193.583 339.895 197.242L346.151 213.953Z" fill="#4A4A4A"/>
<path d="M260.283 221.715C261.045 219.759 262.224 217.992 263.736 216.535L263.546 216.789C265.79 216.887 268.019 217.211 270.199 217.755C272.384 218.317 274.346 219.533 275.822 221.24C276.329 221.781 276.612 222.494 276.614 223.235C276.51 223.716 276.307 224.17 276.017 224.568C275.728 224.966 275.36 225.3 274.935 225.548C272.977 227.315 270.689 228.676 268.203 229.556C266.953 229.974 265.609 230.021 264.333 229.692C263.057 229.363 261.903 228.672 261.011 227.702C260.416 226.837 260.039 225.841 259.912 224.798C259.785 223.755 259.912 222.698 260.283 221.715Z" fill="#4A4A4A"/>
<path d="M275.837 220.97C275.711 220.515 275.477 220.097 275.156 219.751C274.299 218.809 273.205 218.114 271.988 217.739C270.183 217.138 268.261 216.975 266.381 217.264C265.221 217.438 264.111 217.859 263.128 218.498C262.144 219.138 261.309 219.981 260.679 220.97C260.028 222.012 259.713 223.229 259.776 224.455C259.863 225.602 260.275 226.701 260.964 227.623C261.588 228.448 262.442 229.071 263.419 229.413C264.264 229.699 265.159 229.806 266.048 229.73C267.317 229.609 268.562 229.3 269.739 228.811C270.151 228.653 270.468 228.51 270.689 228.399C270.803 228.358 270.91 228.299 271.006 228.225L270.658 228.336L269.691 228.684C268.516 229.125 267.284 229.397 266.032 229.492C265.133 229.576 264.226 229.433 263.396 229.076C262.566 228.719 261.838 228.16 261.28 227.449C260.591 226.547 260.197 225.455 260.152 224.321C260.106 223.187 260.412 222.067 261.027 221.113C261.634 220.163 262.437 219.354 263.382 218.739C264.328 218.124 265.393 217.719 266.508 217.549C268.34 217.247 270.218 217.383 271.988 217.945C273.186 218.289 274.276 218.933 275.156 219.814C275.422 220.175 275.651 220.563 275.837 220.97Z" fill="#2D2D2D"/>
<path d="M271.307 221.319C271.704 220.922 272.128 220.551 272.574 220.21C273.08 219.899 273.61 219.629 274.158 219.402C273.589 219.513 273.048 219.74 272.571 220.07C272.094 220.4 271.691 220.825 271.386 221.319H271.307Z" fill="#272727"/>
<path d="M267.838 221.477C267.838 221.477 268.329 220.986 268.995 220.432C269.66 219.877 270.246 219.513 270.23 219.481C269.731 219.664 269.273 219.944 268.884 220.305C268.464 220.626 268.11 221.024 267.838 221.477Z" fill="#272727"/>
<path d="M266.428 228.89C266.428 228.89 266.508 228.526 266.682 227.956C266.915 227.228 267.245 226.535 267.664 225.896C268.11 225.264 268.643 224.699 269.248 224.217C269.707 223.837 270.024 223.647 270.008 223.631C269.712 223.766 269.431 223.93 269.169 224.122C268.553 224.599 268.018 225.171 267.585 225.817C267.153 226.462 266.832 227.174 266.634 227.924C266.531 228.238 266.462 228.562 266.428 228.89Z" fill="#272727"/>
<path d="M262.912 226.118C262.93 225.812 262.93 225.506 262.912 225.2C262.895 224.462 262.948 223.725 263.07 222.998C263.203 222.276 263.41 221.57 263.688 220.891C263.894 220.368 264.052 220.052 264.037 220.036C264.021 220.02 264.037 220.036 263.894 220.242C263.778 220.437 263.672 220.638 263.577 220.844C263.27 221.527 263.046 222.245 262.912 222.982C262.779 223.713 262.741 224.459 262.801 225.2C262.786 225.426 262.786 225.654 262.801 225.881C262.831 225.963 262.868 226.042 262.912 226.118Z" fill="#272727"/>
<path d="M262.896 219.513C266.353 220.688 269.392 222.846 271.64 225.723C271.416 225.23 271.117 224.776 270.753 224.376C269.09 222.335 266.899 220.789 264.417 219.909C263.932 219.704 263.42 219.571 262.896 219.513Z" fill="#2D2D2D"/>
<path d="M268.203 217.802C269.392 218.698 270.388 219.824 271.133 221.113C271.793 222.444 272.186 223.892 272.289 225.374C272.376 224.934 272.376 224.483 272.289 224.043C272.202 222.961 271.889 221.909 271.371 220.954C270.849 219.997 270.144 219.152 269.296 218.468C268.978 218.176 268.607 217.95 268.203 217.802Z" fill="#2D2D2D"/>
<path d="M262.326 228.89C262.326 228.89 262.421 228.368 262.738 227.607C263.167 226.626 263.811 225.755 264.623 225.057C266.555 223.473 268.504 222.602 268.424 222.475C267.989 222.603 267.57 222.778 267.173 222.998C266.175 223.478 265.243 224.085 264.401 224.804C263.551 225.536 262.902 226.474 262.516 227.528C262.337 227.958 262.272 228.427 262.326 228.89Z" fill="#2D2D2D"/>
<path d="M307.343 217.565C308.057 217.505 308.763 217.372 309.45 217.169C310.796 216.868 312.729 216.44 315.137 215.981C321.41 214.782 327.763 214.041 334.145 213.763C337.631 213.52 341.134 213.803 344.536 214.603C347.284 215.339 349.857 216.615 352.107 218.357C354.158 220.017 355.97 221.952 357.493 224.107C357.237 223.431 356.885 222.796 356.447 222.222C355.335 220.598 353.997 219.141 352.471 217.897C350.198 216.031 347.56 214.661 344.726 213.874C341.258 213.012 337.678 212.697 334.113 212.94C327.68 213.209 321.284 214.036 314.994 215.411C312.586 215.949 310.654 216.472 309.339 216.868C308.65 217.025 307.981 217.259 307.343 217.565Z" fill="#2D2D2D"/>
<path d="M464.809 196.086C464.473 195.765 464.107 195.479 463.716 195.23C462.63 194.476 461.467 193.839 460.247 193.33C455.704 191.416 450.663 191.027 445.88 192.221C442.571 193.028 439.503 194.614 436.93 196.846C434.061 199.441 431.533 202.39 429.406 205.621C427.058 209.134 424.531 212.523 421.835 215.775C418.911 219.227 415.734 222.457 412.331 225.437C405.329 231.536 397.758 236.525 390.155 238.965C386.552 240.183 382.775 240.809 378.972 240.818C375.673 240.95 372.404 240.143 369.547 238.489C367.257 237.003 365.259 235.107 363.654 232.898C362.181 230.981 361.025 229.223 360.075 227.797L357.905 224.503C357.667 224.11 357.403 223.734 357.113 223.378C357.295 223.805 357.518 224.213 357.778 224.598L359.805 227.972C360.708 229.429 361.833 231.14 363.29 233.167C364.886 235.462 366.901 237.434 369.23 238.981C372.172 240.731 375.55 241.61 378.972 241.515C382.852 241.535 386.71 240.92 390.392 239.693C398.201 237.191 405.868 232.217 412.933 226.071C416.376 223.062 419.585 219.795 422.532 216.298C425.237 213.019 427.764 209.598 430.103 206.049C432.191 202.863 434.659 199.942 437.453 197.353C439.934 195.169 442.898 193.605 446.102 192.791C450.772 191.579 455.706 191.873 460.199 193.631C461.802 194.317 463.344 195.139 464.809 196.086Z" fill="#2D2D2D"/>
<path d="M425.351 182.036H426.46C427.189 182.036 428.218 182.131 429.501 182.273C436.184 183.048 442.561 185.506 448.034 189.417C449.064 190.162 449.888 190.811 450.442 191.27L451.297 191.983C450.306 191.021 449.248 190.132 448.129 189.322C442.678 185.334 436.267 182.863 429.549 182.162C428.154 182.026 426.752 181.984 425.351 182.036Z" fill="#272727"/>
<path d="M399.928 197.432L401.084 197.591C401.845 197.686 402.922 197.86 404.252 198.129C407.699 198.834 411.045 199.962 414.216 201.487C417.393 203.015 420.372 204.924 423.086 207.174C424.116 208.029 424.923 208.758 425.462 209.296L426.317 210.104C425.329 209.027 424.27 208.017 423.149 207.079C420.447 204.803 417.473 202.871 414.295 201.329C411.105 199.807 407.736 198.695 404.268 198.018C402.835 197.731 401.386 197.535 399.928 197.432Z" fill="#272727"/>
<path d="M400.704 233.5C400.799 233.097 400.873 232.69 400.926 232.28C401.07 231.167 401.107 230.042 401.037 228.922C400.779 225.209 399.696 221.599 397.869 218.357C396.006 215.151 393.802 212.155 391.295 209.423C389.41 207.285 388.127 206.033 388.127 206.033L388.935 206.968L391.153 209.486C393.609 212.243 395.78 215.241 397.631 218.436C399.469 221.653 400.588 225.231 400.91 228.922C401.013 230.039 401.013 231.163 400.91 232.28C400.91 232.676 400.815 232.977 400.799 233.183L400.704 233.5Z" fill="#272727"/>
<path d="M372.825 217.533C373.002 217.139 373.145 216.731 373.253 216.313C373.765 214.29 373.803 212.176 373.364 210.136C373.277 209.718 373.15 209.309 372.984 208.916C372.984 208.916 373.095 209.391 373.253 210.167C373.634 212.192 373.59 214.274 373.126 216.282C372.952 217.058 372.81 217.517 372.825 217.533Z" fill="#272727"/>
<path d="M367.947 236.81C368.842 236.246 369.689 235.61 370.482 234.91C374.401 231.555 377.171 227.057 378.402 222.047C378.665 221.008 378.84 219.948 378.924 218.879C378.924 218.879 378.924 219.18 378.766 219.719C378.608 220.257 378.528 221.034 378.291 221.968C377.008 226.924 374.278 231.385 370.45 234.783C369.879 235.299 369.281 235.785 368.66 236.24C368.185 236.636 367.947 236.81 367.947 236.81Z" fill="#272727"/>
<path d="M346.579 214.92C346.579 214.92 347.387 214.555 348.638 213.827C350.253 212.881 351.798 211.822 353.263 210.659C354.733 209.494 356.119 208.229 357.414 206.873C358.396 205.828 358.998 205.115 358.998 205.115L358.554 205.558L357.382 206.794C356.074 208.121 354.688 209.369 353.232 210.532C351.761 211.673 350.227 212.73 348.638 213.7L347.165 214.571L346.579 214.92Z" fill="#272727"/>
<path d="M331.389 212.813C331.389 212.813 331.389 212.591 331.389 212.195C331.389 211.799 331.389 211.055 331.468 210.485C331.468 209.043 331.69 207.063 331.975 204.893C332.26 202.723 332.656 200.759 332.973 199.365L333.353 197.702C333.448 197.306 333.479 197.084 333.479 197.084C333.479 197.084 333.479 197.29 333.289 197.686C333.099 198.082 333.02 198.636 332.846 199.27C332.513 200.664 332.117 202.628 331.816 204.814C331.566 206.674 331.413 208.545 331.357 210.421C331.357 211.134 331.357 211.72 331.357 212.132C331.357 212.544 331.389 212.813 331.389 212.813Z" fill="#272727"/>
<path d="M311.667 201.962C311.643 202.136 311.643 202.312 311.667 202.485C311.667 202.976 311.763 203.436 311.794 203.879C311.937 205.067 312.174 206.699 312.539 208.473C312.903 210.247 313.331 211.847 313.679 212.987C313.822 213.415 313.964 213.858 314.107 214.333C314.249 214.809 314.297 214.809 314.297 214.809C314.272 214.636 314.23 214.466 314.17 214.302C314.043 213.842 313.917 213.383 313.79 212.955C313.473 211.815 313.061 210.215 312.697 208.441C312.333 206.667 312.079 205.051 311.905 203.863C311.905 203.42 311.794 202.96 311.731 202.469L311.667 201.962Z" fill="#272727"/>
<path d="M298.235 215.062C298.14 214.192 297.986 213.33 297.776 212.48C297.634 211.616 297.428 210.764 297.158 209.93C297.265 210.798 297.418 211.66 297.618 212.512C297.769 213.375 297.975 214.226 298.235 215.062Z" fill="#272727"/>
<path d="M276.027 222.428C276.027 222.428 276.027 222.032 275.901 221.366C275.774 220.701 275.774 219.782 275.758 218.769C275.758 218.072 275.758 217.311 275.758 216.171V215.379C275.774 215.285 275.774 215.188 275.758 215.094C275.7 215.45 275.668 215.81 275.663 216.171C275.663 216.836 275.663 217.755 275.663 218.784C275.678 219.654 275.747 220.521 275.869 221.382C275.888 221.735 275.941 222.085 276.027 222.428Z" fill="#272727"/>
<path d="M271.766 227.591C273.477 220.701 280.558 216.266 287.606 215.157C294.655 214.048 301.767 215.49 308.816 216.393C315.865 217.295 323.389 217.517 329.709 214.238C331.715 217.957 332.725 222.131 332.64 226.356H328.933C328.157 231.71 323.262 235.86 317.988 236.953C312.713 238.046 309.228 238.141 304.286 235.987C299.09 233.706 292.358 230.268 287.258 228.478C282.157 226.689 276.518 225.801 271.418 227.481" fill="#4A4A4A"/>
<path d="M326.018 215.886C326.194 216.396 326.406 216.894 326.652 217.375C327.155 218.545 327.584 219.746 327.935 220.97C328.294 222.215 328.553 223.486 328.711 224.772C328.733 225.303 328.791 225.833 328.885 226.356C328.96 225.831 328.96 225.297 328.885 224.772C328.803 223.462 328.575 222.166 328.204 220.907C327.853 219.645 327.381 218.42 326.795 217.248C326.599 216.761 326.338 216.302 326.018 215.886Z" fill="#2D2D2D"/>
<path d="M328.632 223.346C329.286 223.355 329.939 223.297 330.581 223.172C331.242 223.151 331.9 223.066 332.545 222.919C331.888 222.769 331.206 222.769 330.549 222.919C329.887 222.92 329.233 223.066 328.632 223.346Z" fill="#2D2D2D"/>
<path d="M327.84 219.07C327.84 219.07 328.569 218.626 329.535 218.278C330.501 217.929 331.341 217.913 331.341 217.818C330.699 217.703 330.038 217.758 329.424 217.978C328.81 218.197 328.264 218.574 327.84 219.07Z" fill="#2D2D2D"/>
<path d="M320.475 216.805H319.366C318.653 216.805 317.592 216.805 316.198 216.805C312.315 216.763 308.445 216.366 304.635 215.617C298.902 214.42 293.001 214.26 287.211 215.142C283.764 215.693 280.484 217.008 277.612 218.991C274.508 221.185 272.196 224.325 271.022 227.94L270.927 228.289L271.26 228.13C272.749 227.405 274.361 226.965 276.012 226.831C280.031 226.742 284.027 227.458 287.765 228.938C291.31 230.154 294.784 231.566 298.172 233.167C299.756 233.928 301.34 234.751 302.924 235.353C304.424 236.052 305.982 236.619 307.581 237.048C310.488 237.733 313.5 237.851 316.451 237.397C318.89 237.051 321.221 236.169 323.278 234.815C324.815 233.765 326.116 232.405 327.096 230.823C327.707 229.836 328.181 228.77 328.506 227.655C328.711 226.879 328.775 226.467 328.775 226.467C328.401 227.991 327.797 229.449 326.985 230.791C325.999 232.343 324.698 233.67 323.167 234.688C321.129 236.021 318.818 236.881 316.404 237.207C313.486 237.636 310.512 237.502 307.644 236.811C306.058 236.391 304.515 235.823 303.035 235.116C301.451 234.435 299.867 233.69 298.283 232.93C294.886 231.309 291.401 229.882 287.844 228.653C284.063 227.17 280.025 226.449 275.964 226.53C274.26 226.669 272.595 227.12 271.054 227.861L271.276 228.051C272.428 224.506 274.695 221.428 277.738 219.276C280.584 217.315 283.831 216.011 287.242 215.458C292.982 214.581 298.832 214.72 304.524 215.87C308.344 216.609 312.228 216.97 316.119 216.947C318.97 216.916 320.475 216.805 320.475 216.805Z" fill="#2D2D2D"/>
<path d="M320.728 236.082C320.837 235.846 320.927 235.602 320.997 235.353C321.214 234.688 321.394 234.011 321.536 233.325C322.476 228.756 322.141 224.016 320.57 219.624C320.335 218.966 320.066 218.321 319.762 217.691C319.664 217.45 319.536 217.221 319.382 217.01C319.382 217.01 319.809 218.04 320.348 219.703C321.063 221.885 321.51 224.145 321.679 226.435C321.826 228.723 321.699 231.02 321.298 233.278C320.997 235.02 320.665 236.066 320.728 236.082Z" fill="#272727"/>
<path d="M307.011 226.752C306.888 227.187 306.804 227.633 306.757 228.083C306.631 228.906 306.393 230.031 306.076 231.251C305.427 233.706 304.793 235.686 304.888 235.717C305.116 235.325 305.291 234.904 305.411 234.466C305.696 233.674 306.076 232.581 306.393 231.298C306.678 230.26 306.879 229.2 306.995 228.13C307.076 227.675 307.081 227.209 307.011 226.752Z" fill="#272727"/>
<path d="M308.927 221.382C308.822 222.239 308.764 223.101 308.753 223.964C308.642 225.374 308.405 226.499 308.5 226.53C309.115 224.887 309.263 223.105 308.927 221.382Z" fill="#272727"/>
<path d="M305.569 215.854C305.474 215.854 305.902 216.915 306.14 218.23C306.377 219.545 306.361 220.653 306.456 220.653C306.663 219.837 306.663 218.983 306.456 218.167C306.362 217.333 306.057 216.537 305.569 215.854Z" fill="#272727"/>
<path d="M294.671 218.927C295.148 218.393 295.486 217.749 295.654 217.052C295.823 216.356 295.817 215.629 295.637 214.936C295.526 214.936 295.637 215.886 295.336 216.979C295.035 218.072 294.544 218.88 294.671 218.927Z" fill="#272727"/>
<path d="M286.118 227.829C286.467 227.449 286.77 227.029 287.02 226.578C287.688 225.524 288.265 224.417 288.747 223.267C289.237 222.122 289.64 220.941 289.951 219.735C290.102 219.219 290.193 218.688 290.22 218.151C290.016 218.622 289.851 219.109 289.729 219.608C289.444 220.511 289.016 221.747 288.446 223.077C287.876 224.408 287.29 225.564 286.862 226.403C286.564 226.851 286.315 227.329 286.118 227.829Z" fill="#272727"/>
<path d="M283.742 216.329C283.742 216.409 283.963 216.678 284.233 217.042C284.502 217.406 284.66 217.739 284.755 217.707C284.85 217.676 284.755 217.264 284.502 216.836C284.249 216.409 283.789 216.219 283.742 216.329Z" fill="#272727"/>
<path d="M271.212 228.13C271.373 228.007 271.526 227.875 271.671 227.734C273.725 225.919 276.306 224.808 279.037 224.566C282.189 224.224 285.378 224.569 288.383 225.58C292.047 226.857 295.638 228.338 299.138 230.015C302.631 231.685 306.379 232.755 310.226 233.183C313.418 233.472 316.635 233.193 319.73 232.36C321.803 231.817 323.803 231.024 325.686 229.999C326.351 229.635 326.842 229.318 327.175 229.097L327.682 228.764L327.159 229.081C326.826 229.287 326.319 229.588 325.654 229.936C320.944 232.448 315.609 233.548 310.289 233.104C306.443 232.669 302.696 231.599 299.201 229.936C295.7 228.249 292.104 226.768 288.43 225.501C285.404 224.487 282.193 224.146 279.021 224.503C276.883 224.78 274.833 225.526 273.018 226.689C272.361 227.097 271.755 227.581 271.212 228.13Z" fill="#272727"/>
<path d="M297.633 220.669C297.633 220.669 298.029 220.86 298.758 221.16C299.487 221.461 300.532 221.873 301.926 222.333C305.4 223.534 309.053 224.139 312.729 224.123C316.397 224.018 320.032 223.405 323.532 222.301C326.225 221.525 327.872 220.939 327.872 220.939L326.684 221.271L323.516 222.19C320.02 223.257 316.398 223.853 312.745 223.964C309.083 223.977 305.444 223.388 301.974 222.222C300.643 221.778 299.582 221.398 298.806 221.097L297.633 220.669Z" fill="#272727"/>
<path d="M281.556 218.991L281.952 218.737C282.312 218.491 282.688 218.269 283.077 218.072C284.497 217.315 286.024 216.781 287.607 216.488C289.937 216.066 292.316 215.976 294.671 216.219C297.348 216.472 300.247 217.074 303.304 217.644C308.521 218.687 313.877 218.837 319.144 218.088C323.199 217.517 325.639 216.9 325.639 216.9L323.896 217.217C322.788 217.422 321.156 217.708 319.144 217.961C313.875 218.693 308.52 218.533 303.304 217.486C300.247 216.916 297.333 216.314 294.64 216.06C292.258 215.795 289.851 215.886 287.496 216.329C285.91 216.61 284.38 217.145 282.966 217.913C282.468 218.234 281.996 218.594 281.556 218.991Z" fill="#272727"/>
<path d="M271.577 227.307C272.838 225.557 274.3 223.962 275.933 222.555C277.736 221.083 279.807 219.975 282.031 219.291C284.755 218.46 287.635 218.275 290.442 218.753C293.254 219.314 295.939 220.388 298.362 221.921C300.643 223.251 302.702 224.55 304.556 225.422C305.997 226.169 307.539 226.702 309.133 227.006C309.562 227.083 309.997 227.126 310.432 227.132C310.733 227.132 310.892 227.132 310.892 227.132C308.775 226.705 306.728 225.985 304.809 224.994C303.035 224.075 301.039 222.745 298.742 221.367C296.273 219.744 293.514 218.615 290.616 218.04C287.96 217.573 285.233 217.702 282.632 218.42C280.032 219.138 277.625 220.426 275.584 222.19C274.37 223.257 273.305 224.483 272.416 225.833C272.067 226.281 271.784 226.778 271.577 227.307Z" fill="#2D2D2D"/>
<path d="M293.578 219.228C296.635 220.548 299.913 221.279 303.24 221.382C306.548 221.759 309.898 221.501 313.109 220.622C313.109 220.384 308.69 220.955 303.304 220.622C297.918 220.289 293.641 218.99 293.578 219.228Z" fill="#2D2D2D"/>
<path d="M301.419 214.365L303.193 213.605C304.381 213.114 306.108 212.401 308.373 211.577C314.759 209.171 321.483 207.776 328.299 207.443C332.998 207.283 337.69 207.893 342.191 209.249C347.391 210.78 352.139 213.559 356.02 217.343C360.138 221.287 363.591 226.277 368.327 230.348C370.725 232.446 373.577 233.958 376.659 234.767C379.872 235.457 383.212 235.26 386.321 234.197C389.42 233.148 392.298 231.537 394.812 229.445C397.236 227.403 399.42 225.091 401.322 222.554C405.124 217.628 408.149 212.433 411.618 207.887C414.821 203.538 418.497 199.559 422.579 196.022C426.145 192.942 430.176 190.445 434.523 188.625C440.83 185.93 447.813 185.234 454.529 186.629C456.337 187.036 458.098 187.625 459.787 188.388L461.53 189.259L459.803 188.356C458.117 187.58 456.354 186.98 454.544 186.566C447.813 185.15 440.809 185.83 434.475 188.514C430.113 190.33 426.07 192.832 422.5 195.927C418.363 199.452 414.643 203.438 411.412 207.807C407.943 212.338 404.918 217.549 401.116 222.459C399.221 224.982 397.048 227.282 394.637 229.318C392.138 231.414 389.269 233.026 386.179 234.07C383.12 235.114 379.836 235.311 376.675 234.64C373.621 233.837 370.796 232.335 368.422 230.253C363.67 226.214 360.249 221.224 356.099 217.264C352.206 213.467 347.442 210.682 342.223 209.154C337.696 207.791 332.976 207.187 328.252 207.364C321.447 207.685 314.734 209.069 308.357 211.466C303.827 213.193 301.419 214.365 301.419 214.365Z" fill="#272727"/>
<path d="M379.146 218.991C379.981 219.064 380.822 219.032 381.649 218.896C383.927 218.511 386.092 217.623 387.985 216.298C390.733 214.299 393.108 211.833 395.002 209.011C397.278 205.561 399.732 202.23 402.352 199.032C407.286 193.35 413.225 188.624 419.871 185.093C421.888 184.032 423.961 183.08 426.08 182.242L428.361 181.371C428.361 181.371 427.505 181.64 425.985 182.194C423.858 183.015 421.779 183.956 419.76 185.014C413.077 188.518 407.109 193.24 402.162 198.937C399.538 202.138 397.085 205.474 394.812 208.932C392.935 211.747 390.582 214.212 387.858 216.219C385.998 217.536 383.874 218.433 381.633 218.848C381.025 218.94 380.411 218.993 379.796 219.006L379.146 218.991Z" fill="#272727"/>
<path d="M306.218 205.605C306.386 205.524 306.55 205.434 306.709 205.336C307.01 205.162 307.47 204.877 308.072 204.56C309.764 203.615 311.515 202.779 313.315 202.057C319.256 199.64 325.638 198.495 332.049 198.694C338.46 198.893 344.759 200.433 350.539 203.214C352.286 204.046 353.979 204.988 355.608 206.033C356.194 206.397 356.621 206.714 356.938 206.904L357.397 207.205C357.397 207.205 356.796 206.746 355.655 205.986C354.029 204.921 352.336 203.964 350.586 203.119C344.803 200.292 338.486 198.726 332.053 198.524C325.619 198.322 319.216 199.489 313.267 201.946C311.469 202.677 309.722 203.529 308.04 204.497C306.852 205.13 306.218 205.605 306.218 205.605Z" fill="#272727"/>
<path d="M338.421 212.67C338.421 212.67 338.5 212.449 338.611 212.037C338.722 211.625 338.912 211.055 339.134 210.342C339.758 208.489 340.504 206.679 341.367 204.925C342.244 203.176 343.245 201.493 344.361 199.888C344.789 199.27 345.137 198.779 345.391 198.446C345.644 198.113 345.771 197.923 345.771 197.923C345.233 198.527 344.73 199.162 344.266 199.824C341.972 203.019 340.202 206.558 339.023 210.31C338.777 211.085 338.576 211.873 338.421 212.67Z" fill="#272727"/>
<path d="M321.599 197.955C321.599 197.955 321.504 198.826 321.472 200.268C321.457 202.128 321.584 203.987 321.853 205.828C322.116 207.672 322.518 209.493 323.056 211.277C323.484 212.639 323.833 213.447 323.833 213.447C323.833 213.447 323.833 213.241 323.658 212.861C323.484 212.48 323.326 211.768 323.167 211.277C322.672 209.485 322.286 207.666 322.011 205.828C321.75 203.996 321.612 202.149 321.599 200.299C321.599 199.729 321.599 199.175 321.599 198.605C321.599 198.034 321.599 197.955 321.599 197.955Z" fill="#272727"/>
<path d="M358.031 224.819C358.67 224.463 359.289 224.072 359.884 223.647C361.324 222.622 362.676 221.478 363.924 220.226C365.188 218.992 366.343 217.651 367.377 216.218C367.799 215.616 368.191 214.992 368.549 214.349C368.549 214.349 368.406 214.523 368.2 214.84C367.994 215.157 367.678 215.6 367.282 216.155C366.252 217.577 365.114 218.917 363.876 220.162C362.635 221.413 361.3 222.567 359.884 223.616L358.57 224.534L358.031 224.819Z" fill="#272727"/>
<path d="M382.536 219.894C382.698 219.375 382.825 218.845 382.916 218.31C383.135 216.964 383.204 215.599 383.122 214.239C383.043 212.876 382.809 211.526 382.425 210.215C382.268 209.674 382.072 209.145 381.839 208.631C381.873 208.781 381.915 208.929 381.966 209.075C382.061 209.344 382.172 209.74 382.314 210.247C382.662 211.558 382.88 212.901 382.964 214.255C383.041 215.603 382.988 216.956 382.805 218.294C382.726 218.816 382.663 219.228 382.599 219.513C382.567 219.638 382.546 219.765 382.536 219.894Z" fill="#272727"/>
<path d="M382.615 240.422C383.052 239.589 383.443 238.732 383.787 237.856C384.622 235.735 385.274 233.546 385.735 231.314C386.184 229.081 386.428 226.812 386.464 224.534C386.48 223.594 386.448 222.652 386.369 221.715V222.554C386.369 223.03 386.369 223.742 386.369 224.614C386.283 226.88 386.018 229.137 385.577 231.361C385.131 233.585 384.501 235.768 383.692 237.888C383.375 238.695 383.106 239.345 382.916 239.788L382.615 240.422Z" fill="#272727"/>
<path d="M364.003 207.427C363.929 207.844 363.834 208.256 363.718 208.663C363.464 209.312 363.084 209.756 363.132 209.787C363.476 209.509 363.73 209.134 363.86 208.71C364.04 208.308 364.09 207.859 364.003 207.427Z" fill="#272727"/>
<path d="M394.922 201.503L395.952 202.073C396.617 202.422 397.536 202.96 398.724 203.657C404.76 207.321 410.052 212.087 414.326 217.707C415.134 218.784 415.768 219.687 416.18 220.305C416.592 220.923 416.861 221.271 416.861 221.271C416.107 220.02 415.288 218.809 414.406 217.644C410.188 211.958 404.878 207.171 398.787 203.562C397.536 202.808 396.246 202.121 394.922 201.503Z" fill="#272727"/>
<path d="M413.978 185.616L414.96 185.853C415.61 185.996 416.544 186.233 417.653 186.534C420.594 187.361 423.465 188.421 426.238 189.702C428.995 190.98 431.644 192.479 434.158 194.185C435.124 194.85 435.901 195.405 436.423 195.769L437.247 196.355C437.247 196.355 436.154 195.405 434.222 194.058C431.717 192.318 429.067 190.797 426.302 189.512C423.517 188.219 420.629 187.159 417.669 186.344C415.42 185.837 413.978 185.616 413.978 185.616Z" fill="#272727"/>
<path d="M284.708 213.526C284.718 213.859 284.771 214.189 284.866 214.508C284.915 214.836 285.023 215.152 285.183 215.443C285.182 215.109 285.129 214.777 285.025 214.46C284.975 214.133 284.868 213.816 284.708 213.526Z" fill="#272727"/>
<path d="M212.779 212.813C212.779 212.813 205.619 214.302 202.578 214.967C201.58 215.189 200.566 214.967 199.568 215.205C195.181 215.923 190.7 215.843 186.342 214.967C183.316 213.858 183.174 217.723 186.452 219.387C188.093 220.298 189.877 220.925 191.727 221.24L183.807 227.576C183.4 227.905 183.13 228.374 183.047 228.891L181.035 242.83C180.916 243.403 181.011 244.001 181.303 244.509C181.595 245.017 182.063 245.4 182.619 245.586C182.758 245.656 182.91 245.698 183.065 245.709C183.221 245.719 183.377 245.699 183.524 245.649C183.672 245.599 183.808 245.52 183.924 245.417C184.041 245.313 184.136 245.188 184.203 245.047L183.981 246.916C183.872 247.559 184.023 248.219 184.4 248.751C184.777 249.283 185.35 249.643 185.993 249.752C186.636 249.861 187.296 249.71 187.827 249.333C188.359 248.956 188.719 248.383 188.828 247.74C188.836 247.698 188.836 247.655 188.828 247.613L191.6 249.197C191.6 249.197 193.438 251.098 195.418 248.453C197.002 246.267 201.96 237.587 201.96 237.587C201.96 237.587 222.837 228.796 222.552 225.279L212.779 212.813Z" fill="#F3F3F3"/>
<path d="M188.765 247.724C189.043 246.616 189.234 245.488 189.335 244.35C189.652 242.291 190.254 239.393 190.666 236.225C190.951 234.641 191.315 233.136 191.663 231.884C191.875 231.333 192.273 230.873 192.788 230.585L194.245 229.667C195.249 229.112 196.184 228.442 197.033 227.671C195.916 228.024 194.85 228.525 193.865 229.16L192.36 229.999C191.693 230.335 191.165 230.896 190.872 231.583C190.417 233.054 190.052 234.551 189.779 236.066C189.351 239.234 188.86 242.133 188.67 244.255C188.524 245.41 188.556 246.58 188.765 247.724Z" fill="#EEE6E1"/>
<path d="M184.14 245.032C184.472 245.032 184.995 240.026 186.278 233.944C186.432 232.553 186.886 231.213 187.609 230.015C188.406 229.153 189.263 228.348 190.175 227.608C190.779 227.099 191.425 226.643 192.107 226.245C192.598 225.976 192.899 225.913 192.899 225.849C192.899 225.786 192.551 225.754 191.981 225.944C191.211 226.246 190.486 226.651 189.826 227.148C188.83 227.845 187.902 228.636 187.054 229.508C186.184 230.777 185.64 232.24 185.47 233.769C184.9 236.38 184.503 239.026 184.282 241.689C184.117 242.795 184.069 243.916 184.14 245.032Z" fill="#EEE6E1"/>
<path d="M201.215 231.837C200.249 232.128 199.331 232.56 198.491 233.12L197.16 233.849C196.561 234.103 196.021 234.481 195.576 234.957C195.144 235.494 194.84 236.123 194.689 236.795C194.499 237.444 194.293 238.11 194.071 238.775C192.938 242.016 192.064 245.343 191.458 248.722C192.849 245.592 193.988 242.356 194.863 239.044L195.45 237.064C195.57 236.491 195.814 235.951 196.162 235.48C196.517 235.074 196.948 234.741 197.43 234.498L198.697 233.674C199.621 233.187 200.469 232.568 201.215 231.837Z" fill="#EEE6E1"/>
<path d="M200.661 216.773C200.566 216.456 197.604 217.612 194.325 219.529C191.046 221.445 188.575 223.441 188.749 223.647C188.924 223.853 191.426 222.063 194.737 220.242L198.935 217.802C199.547 217.525 200.126 217.18 200.661 216.773Z" fill="#EEE6E1"/>
</svg>
