<svg width="129" height="41" viewBox="0 0 129 41" fill="none" xmlns="http://www.w3.org/2000/svg">
<path d="M16.1353 11.3578L12.4316 16.1839C12.3685 16.2662 12.3223 16.3604 12.2958 16.461C12.2694 16.5616 12.2632 16.6665 12.2776 16.7695C12.292 16.8725 12.3267 16.9716 12.3797 17.0609C12.4327 17.1502 12.5029 17.2278 12.5862 17.2893L20.135 22.862C20.2676 22.9598 20.4276 23.0126 20.5919 23.0126H25.6291C25.7443 23.0126 25.8581 22.9866 25.9621 22.9366C26.0661 22.8865 26.1577 22.8137 26.2302 22.7234L29.6283 18.4886C29.6994 18.4 29.7504 18.2967 29.7776 18.186C29.8048 18.0753 29.8075 17.96 29.7857 17.8481L28.8458 13.0364C28.8235 12.9226 28.7764 12.8152 28.7077 12.7221C28.639 12.629 28.5506 12.5525 28.4488 12.4982L22.8388 9.50647C22.6628 9.41262 22.4577 9.39083 22.2662 9.44564L16.5357 11.0849C16.3767 11.1304 16.2364 11.226 16.1353 11.3578Z" fill="#181818"/>
<path d="M23.836 12.4248C20.7529 12.2787 19.9821 15.1492 19.9821 16.6027C19.8536 17.7213 20.8436 19.8445 23.836 20.0043C26.8285 20.1641 27.5313 17.9725 27.6673 16.6027C27.8033 15.2329 27.6899 12.6075 23.836 12.4248Z" fill="white"/>
<path d="M25.0947 17.8528C25.7959 17.8528 26.3643 17.2804 26.3643 16.5744C26.3643 15.8683 25.7959 15.2959 25.0947 15.2959C24.3936 15.2959 23.8252 15.8683 23.8252 16.5744C23.8252 17.2804 24.3936 17.8528 25.0947 17.8528Z" fill="#181818"/>
<path d="M25.6643 3.92658L26.8205 11.7116L27.2739 11.8942L25.9137 3.10474C24.4401 3.48526 21.1983 4.35582 20.0194 4.79426C18.5459 5.34218 16.3667 5.34218 15.7574 5.34218C15.1611 5.34218 14.6239 5.1367 14.2839 5.09103C14.0118 5.05451 13.9741 5.31933 13.9892 5.45633C13.9741 5.57058 14.1231 6.08297 15.1453 6.34668C16.208 6.6205 22.5584 4.91585 25.6643 3.92658Z" fill="#181818"/>
<path d="M26.9771 2.30414L27.9293 12.3036L28.4507 12.7602L27.4759 1.75623C26.4406 1.79431 23.7035 1.84756 21.0375 1.75623C18.3715 1.66489 16.3751 0.607106 15.71 0.0896545C15.4908 -0.0168756 15.0571 -0.115824 15.0753 0.340798C15.0979 0.911532 15.8589 1.43359 17.251 1.94055C18.384 2.35313 24.1433 2.44111 26.9771 2.30414Z" fill="#181818"/>
<mask id="path-6-outside-1_150_999" maskUnits="userSpaceOnUse" x="0" y="24.6101" width="129" height="16" fill="black">
<rect fill="white" y="24.6101" width="129" height="16"/>
<path d="M12.3288 38.6632V30.4264L3.27753 39.4691C3.01575 39.7313 2.7016 39.8623 2.3351 39.8623C2.16494 39.8623 1.99478 39.8361 1.82462 39.7837C1.66755 39.7181 1.52357 39.6133 1.39268 39.4691C1.2487 39.3381 1.14398 39.1939 1.07854 39.0367C1.02618 38.8663 1 38.6959 1 38.5256C1 38.1586 1.13089 37.8441 1.39268 37.582L12.7214 26.2392C12.9832 25.9771 13.2974 25.846 13.6639 25.846C13.834 25.846 14.0042 25.8788 14.1743 25.9443C14.423 26.0491 14.6194 26.2195 14.7634 26.4554C14.9204 26.6782 14.999 26.9207 14.999 27.1828V38.6632C14.999 39.0432 14.8681 39.3643 14.6063 39.6264C14.3445 39.8754 14.0304 39.9999 13.6639 39.9999C13.2843 39.9999 12.9636 39.8754 12.7018 39.6264C12.4531 39.3643 12.3288 39.0432 12.3288 38.6632Z"/>
<path d="M29.5222 38.4862V32.746C29.5222 32.2873 29.4568 31.8549 29.3259 31.4486C29.195 31.0292 29.0117 30.6426 28.7761 30.2888C28.2918 29.568 27.6504 29.0372 26.852 28.6964C26.5902 28.5916 26.3153 28.5064 26.0274 28.4409C25.7394 28.3754 25.4449 28.3426 25.1439 28.3426H20.7459V38.4862C20.7459 38.8663 20.6084 39.1939 20.3335 39.4691C20.0718 39.7313 19.7511 39.8623 19.3715 39.8623C18.9919 39.8623 18.6712 39.7313 18.4094 39.4691C18.1476 39.1939 18.0168 38.8663 18.0168 38.4862V26.9862C18.0168 26.593 18.1476 26.2654 18.4094 26.0033C18.6712 25.7412 18.9919 25.6101 19.3715 25.6101H25.1439C25.8899 25.6101 26.5968 25.7215 27.2643 25.9443C27.9319 26.154 28.5536 26.4489 29.1295 26.8289C29.7055 27.209 30.2094 27.6677 30.6413 28.205C31.0864 28.7292 31.4463 29.319 31.7212 29.9742C32.0877 30.8523 32.271 31.7762 32.271 32.746V38.4862C32.271 38.8663 32.1335 39.1939 31.8586 39.4691C31.5969 39.7313 31.2762 39.8623 30.8966 39.8623C30.517 39.8623 30.1898 39.7313 29.9149 39.4691C29.6531 39.1939 29.5222 38.8663 29.5222 38.4862Z"/>
<path d="M45.1483 25.6494C45.5279 25.6494 45.8486 25.787 46.1104 26.0622C46.3853 26.3244 46.5227 26.6454 46.5227 27.0255C46.5227 27.4056 46.3853 27.7332 46.1104 28.0084C45.8486 28.2705 45.5279 28.4016 45.1483 28.4016H40.77V38.5059C40.77 38.886 40.6391 39.207 40.3773 39.4691C40.1155 39.7313 39.7948 39.8623 39.4152 39.8623C39.0356 39.8623 38.7084 39.7313 38.4335 39.4691C38.1717 39.207 38.0409 38.886 38.0409 38.5059V28.4016H33.6625C33.2829 28.4016 32.9622 28.2705 32.7004 28.0084C32.4387 27.7332 32.3078 27.4056 32.3078 27.0255C32.3078 26.6454 32.4387 26.3244 32.7004 26.0622C32.9622 25.787 33.2829 25.6494 33.6625 25.6494H45.1483Z"/>
<path d="M50.0027 38.7221C48.8377 37.9358 47.9738 36.8874 47.411 35.5768C47.2277 35.1574 47.0837 34.7184 46.979 34.2597C46.8874 33.7879 46.8416 33.303 46.8416 32.805C46.8416 32.058 46.9463 31.3503 47.1557 30.6819C47.3783 30.0004 47.6793 29.3779 48.0589 28.8144C48.4516 28.2378 48.9097 27.7332 49.4333 27.3007C49.9699 26.8551 50.5589 26.4947 51.2003 26.2195C51.6323 26.036 52.0773 25.8984 52.5354 25.8067C53.0066 25.7018 53.4909 25.6494 53.9883 25.6494C54.7344 25.6494 55.4412 25.7608 56.1088 25.9836C56.7763 26.1933 57.3981 26.4947 57.974 26.8879C58.5499 27.2679 59.0539 27.7266 59.4858 28.264C59.9309 28.7882 60.2843 29.3714 60.5461 30.0135C60.9256 30.8916 61.1154 31.8221 61.1154 32.805C61.1154 33.552 61.0042 34.2597 60.7817 34.9281C60.5722 35.5965 60.2777 36.219 59.8981 36.7956C59.5185 37.3723 59.0604 37.8834 58.5238 38.329C57.9871 38.7614 57.3981 39.1087 56.7567 39.3709C55.8797 39.7509 54.9569 39.9409 53.9883 39.9409C53.2684 39.9409 52.5681 39.8361 51.8875 39.6264C51.22 39.4167 50.5917 39.1153 50.0027 38.7221ZM51.5341 29.1486C50.8011 29.6335 50.2644 30.2822 49.9241 31.0947C49.7016 31.619 49.5903 32.1891 49.5903 32.805C49.5903 33.2637 49.6558 33.7027 49.7867 34.1221C49.9176 34.5284 50.1008 34.9084 50.3364 35.2623C50.572 35.603 50.8535 35.911 51.1807 36.1862C51.521 36.4614 51.8875 36.6842 52.2802 36.8546C52.8038 37.0774 53.3731 37.1888 53.9883 37.1888C54.4465 37.1888 54.8784 37.1233 55.2842 36.9922C55.703 36.8612 56.0892 36.6777 56.4426 36.4418C56.7829 36.2059 57.0905 35.9241 57.3654 35.5965C57.6402 35.2688 57.8628 34.9084 58.0329 34.5153C58.2554 33.9648 58.3667 33.3948 58.3667 32.805C58.3667 32.3463 58.3012 31.9073 58.1703 31.4879C58.0395 31.0685 57.8562 30.6885 57.6206 30.3477C57.1232 29.6138 56.4818 29.0765 55.6965 28.7358C55.1467 28.513 54.5773 28.4016 53.9883 28.4016C53.5302 28.4016 53.0917 28.4671 52.6729 28.5982C52.254 28.7292 51.8744 28.9127 51.5341 29.1486Z"/>
<path d="M64.1742 38.4862V27.0255C64.1742 26.6454 64.3051 26.3244 64.5669 26.0622C64.8417 25.787 65.169 25.6494 65.5485 25.6494H72.3026C72.8393 25.6494 73.3497 25.7281 73.834 25.8853C74.3183 26.0426 74.7634 26.2588 75.1692 26.534C76.0069 27.0976 76.6286 27.8511 77.0344 28.7947C77.2962 29.4238 77.427 30.0856 77.427 30.7802C77.427 31.3175 77.3485 31.8287 77.1914 32.3136C77.0475 32.7985 76.838 33.244 76.5632 33.6503C76.0003 34.4891 75.2477 35.1116 74.3053 35.5178C73.677 35.78 73.0094 35.911 72.3026 35.911H66.9229V38.4862C66.9229 38.8663 66.7855 39.1939 66.5106 39.4691C66.2488 39.7313 65.9281 39.8623 65.5485 39.8623C65.169 39.8623 64.8417 39.7313 64.5669 39.4691C64.3051 39.1939 64.1742 38.8663 64.1742 38.4862ZM72.3026 33.1589C72.8131 33.1589 73.2581 33.0278 73.6377 32.7657C73.978 32.5429 74.2398 32.2611 74.4231 31.9204C74.6063 31.5665 74.6979 31.1865 74.6979 30.7802C74.6979 30.2953 74.5605 29.8563 74.2856 29.4631C74.0107 29.07 73.6639 28.7751 73.245 28.5785C72.944 28.4605 72.6298 28.4016 72.3026 28.4016H66.9229V33.1589H72.3026Z"/>
<path d="M82.7422 38.7221C81.5772 37.9358 80.7133 36.8874 80.1505 35.5768C79.9672 35.1574 79.8232 34.7184 79.7185 34.2597C79.6269 33.7879 79.5811 33.303 79.5811 32.805C79.5811 32.058 79.6858 31.3503 79.8952 30.6819C80.1178 30.0004 80.4188 29.3779 80.7984 28.8144C81.1911 28.2378 81.6492 27.7332 82.1728 27.3007C82.7094 26.8551 83.2984 26.4947 83.9398 26.2195C84.3718 26.036 84.8168 25.8984 85.2749 25.8067C85.7461 25.7018 86.2304 25.6494 86.7278 25.6494C87.4739 25.6494 88.1807 25.7608 88.8483 25.9836C89.5158 26.1933 90.1376 26.4947 90.7135 26.8879C91.2894 27.2679 91.7934 27.7266 92.2253 28.264C92.6704 28.7882 93.0238 29.3714 93.2856 30.0135C93.6651 30.8916 93.8549 31.8221 93.8549 32.805C93.8549 33.552 93.7437 34.2597 93.5212 34.9281C93.3117 35.5965 93.0172 36.219 92.6376 36.7956C92.258 37.3723 91.7999 37.8834 91.2633 38.329C90.7266 38.7614 90.1376 39.1087 89.4962 39.3709C88.6192 39.7509 87.6964 39.9409 86.7278 39.9409C86.0079 39.9409 85.3076 39.8361 84.627 39.6264C83.9594 39.4167 83.3312 39.1153 82.7422 38.7221ZM84.2736 29.1486C83.5406 29.6335 83.0039 30.2822 82.6636 31.0947C82.4411 31.619 82.3298 32.1891 82.3298 32.805C82.3298 33.2637 82.3953 33.7027 82.5262 34.1221C82.6571 34.5284 82.8403 34.9084 83.0759 35.2623C83.3115 35.603 83.593 35.911 83.9202 36.1862C84.2605 36.4614 84.627 36.6842 85.0197 36.8546C85.5433 37.0774 86.1126 37.1888 86.7278 37.1888C87.186 37.1888 87.6179 37.1233 88.0237 36.9922C88.4425 36.8612 88.8287 36.6777 89.1821 36.4418C89.5224 36.2059 89.83 35.9241 90.1049 35.5965C90.3797 35.2688 90.6023 34.9084 90.7724 34.5153C90.9949 33.9648 91.1062 33.3948 91.1062 32.805C91.1062 32.3463 91.0407 31.9073 90.9099 31.4879C90.779 31.0685 90.5957 30.6885 90.3601 30.3477C89.8627 29.6138 89.2213 29.0765 88.436 28.7358C87.8862 28.513 87.3168 28.4016 86.7278 28.4016C86.2697 28.4016 85.8312 28.4671 85.4124 28.5982C84.9935 28.7292 84.6139 28.9127 84.2736 29.1486Z"/>
<path d="M98.1506 39.135C97.4569 38.6763 96.9464 38.0538 96.6192 37.2674C96.3967 36.7432 96.2854 36.1928 96.2854 35.6161V27.0058C96.2854 26.6258 96.4163 26.3047 96.6781 26.0426C96.9399 25.7674 97.2606 25.6298 97.6401 25.6298C98.0197 25.6298 98.3404 25.7674 98.6022 26.0426C98.8771 26.3047 99.0145 26.6258 99.0145 27.0058V35.6161C99.0145 35.9045 99.0996 36.1862 99.2698 36.4614C99.4007 36.6711 99.5774 36.8349 99.7999 36.9529C100.035 37.0577 100.271 37.1102 100.507 37.1102H107.241C107.621 37.1102 107.941 37.2478 108.203 37.523C108.478 37.7851 108.615 38.1062 108.615 38.4862C108.615 38.8663 108.478 39.1939 108.203 39.4691C107.941 39.7313 107.621 39.8623 107.241 39.8623H100.507C100.062 39.8623 99.6428 39.7968 99.2501 39.6657C98.8574 39.5347 98.4909 39.3577 98.1506 39.135Z"/>
<path d="M110.417 38.4862V27.0255C110.417 26.6454 110.548 26.3244 110.81 26.0622C111.085 25.787 111.412 25.6494 111.792 25.6494C112.171 25.6494 112.492 25.787 112.754 26.0622C113.016 26.3244 113.146 26.6454 113.146 27.0255V38.4862C113.146 38.8663 113.016 39.1939 112.754 39.4691C112.492 39.7313 112.171 39.8623 111.792 39.8623C111.412 39.8623 111.085 39.7313 110.81 39.4691C110.548 39.1939 110.417 38.8663 110.417 38.4862Z"/>
<path d="M124.259 39.8623H116.877C116.497 39.8623 116.17 39.7313 115.895 39.4691C115.633 39.1939 115.502 38.8663 115.502 38.4862C115.502 38.1062 115.633 37.7851 115.895 37.523C116.17 37.2609 116.497 37.1298 116.877 37.1298H124.259C124.56 37.1298 124.842 37.0446 125.103 36.8743C125.365 36.6777 125.548 36.4549 125.653 36.2059C125.679 36.1141 125.705 36.0224 125.732 35.9307C125.758 35.8258 125.771 35.721 125.771 35.6161C125.771 35.3278 125.686 35.0526 125.516 34.7905C125.319 34.5284 125.097 34.3449 124.848 34.2401C124.665 34.1614 124.469 34.1221 124.259 34.1221H119.743C118.84 34.1221 118.048 33.8797 117.368 33.3948C117.027 33.172 116.726 32.9033 116.464 32.5888C116.203 32.2742 115.993 31.9269 115.836 31.5469C115.614 31.0227 115.502 30.4657 115.502 29.8759C115.502 29.4435 115.568 29.0306 115.699 28.6375C115.83 28.2312 116.006 27.8577 116.229 27.517C116.687 26.8224 117.309 26.3112 118.094 25.9836C118.605 25.7608 119.154 25.6494 119.743 25.6494H127.126C127.505 25.6494 127.826 25.7805 128.088 26.0426C128.363 26.3047 128.5 26.6258 128.5 27.0058C128.5 27.3859 128.363 27.7135 128.088 27.9888C127.826 28.2509 127.505 28.3819 127.126 28.3819H119.743C119.429 28.3819 119.148 28.4671 118.899 28.6375C118.65 28.8078 118.467 29.0306 118.349 29.3059C118.323 29.3976 118.297 29.4893 118.271 29.5811C118.245 29.6728 118.231 29.7711 118.231 29.8759C118.231 30.1905 118.317 30.4722 118.487 30.7212C118.683 30.9834 118.906 31.1668 119.154 31.2717C119.324 31.3503 119.521 31.3896 119.743 31.3896H124.259C125.162 31.3896 125.954 31.6321 126.635 32.117C126.975 32.3398 127.276 32.6084 127.538 32.923C127.8 33.2375 128.009 33.5848 128.166 33.9648C128.389 34.4891 128.5 35.0395 128.5 35.6161C128.5 36.0617 128.435 36.4876 128.304 36.8939C128.173 37.2871 127.996 37.654 127.774 37.9948C127.315 38.6894 126.694 39.2005 125.908 39.5281C125.385 39.7509 124.835 39.8623 124.259 39.8623Z"/>
</mask>
<path d="M12.3288 38.6632V30.4264L3.27753 39.4691C3.01575 39.7313 2.7016 39.8623 2.3351 39.8623C2.16494 39.8623 1.99478 39.8361 1.82462 39.7837C1.66755 39.7181 1.52357 39.6133 1.39268 39.4691C1.2487 39.3381 1.14398 39.1939 1.07854 39.0367C1.02618 38.8663 1 38.6959 1 38.5256C1 38.1586 1.13089 37.8441 1.39268 37.582L12.7214 26.2392C12.9832 25.9771 13.2974 25.846 13.6639 25.846C13.834 25.846 14.0042 25.8788 14.1743 25.9443C14.423 26.0491 14.6194 26.2195 14.7634 26.4554C14.9204 26.6782 14.999 26.9207 14.999 27.1828V38.6632C14.999 39.0432 14.8681 39.3643 14.6063 39.6264C14.3445 39.8754 14.0304 39.9999 13.6639 39.9999C13.2843 39.9999 12.9636 39.8754 12.7018 39.6264C12.4531 39.3643 12.3288 39.0432 12.3288 38.6632Z" fill="#181818"/>
<path d="M29.5222 38.4862V32.746C29.5222 32.2873 29.4568 31.8549 29.3259 31.4486C29.195 31.0292 29.0117 30.6426 28.7761 30.2888C28.2918 29.568 27.6504 29.0372 26.852 28.6964C26.5902 28.5916 26.3153 28.5064 26.0274 28.4409C25.7394 28.3754 25.4449 28.3426 25.1439 28.3426H20.7459V38.4862C20.7459 38.8663 20.6084 39.1939 20.3335 39.4691C20.0718 39.7313 19.7511 39.8623 19.3715 39.8623C18.9919 39.8623 18.6712 39.7313 18.4094 39.4691C18.1476 39.1939 18.0168 38.8663 18.0168 38.4862V26.9862C18.0168 26.593 18.1476 26.2654 18.4094 26.0033C18.6712 25.7412 18.9919 25.6101 19.3715 25.6101H25.1439C25.8899 25.6101 26.5968 25.7215 27.2643 25.9443C27.9319 26.154 28.5536 26.4489 29.1295 26.8289C29.7055 27.209 30.2094 27.6677 30.6413 28.205C31.0864 28.7292 31.4463 29.319 31.7212 29.9742C32.0877 30.8523 32.271 31.7762 32.271 32.746V38.4862C32.271 38.8663 32.1335 39.1939 31.8586 39.4691C31.5969 39.7313 31.2762 39.8623 30.8966 39.8623C30.517 39.8623 30.1898 39.7313 29.9149 39.4691C29.6531 39.1939 29.5222 38.8663 29.5222 38.4862Z" fill="#181818"/>
<path d="M45.1483 25.6494C45.5279 25.6494 45.8486 25.787 46.1104 26.0622C46.3853 26.3244 46.5227 26.6454 46.5227 27.0255C46.5227 27.4056 46.3853 27.7332 46.1104 28.0084C45.8486 28.2705 45.5279 28.4016 45.1483 28.4016H40.77V38.5059C40.77 38.886 40.6391 39.207 40.3773 39.4691C40.1155 39.7313 39.7948 39.8623 39.4152 39.8623C39.0356 39.8623 38.7084 39.7313 38.4335 39.4691C38.1717 39.207 38.0409 38.886 38.0409 38.5059V28.4016H33.6625C33.2829 28.4016 32.9622 28.2705 32.7004 28.0084C32.4387 27.7332 32.3078 27.4056 32.3078 27.0255C32.3078 26.6454 32.4387 26.3244 32.7004 26.0622C32.9622 25.787 33.2829 25.6494 33.6625 25.6494H45.1483Z" fill="#181818"/>
<path d="M50.0027 38.7221C48.8377 37.9358 47.9738 36.8874 47.411 35.5768C47.2277 35.1574 47.0837 34.7184 46.979 34.2597C46.8874 33.7879 46.8416 33.303 46.8416 32.805C46.8416 32.058 46.9463 31.3503 47.1557 30.6819C47.3783 30.0004 47.6793 29.3779 48.0589 28.8144C48.4516 28.2378 48.9097 27.7332 49.4333 27.3007C49.9699 26.8551 50.5589 26.4947 51.2003 26.2195C51.6323 26.036 52.0773 25.8984 52.5354 25.8067C53.0066 25.7018 53.4909 25.6494 53.9883 25.6494C54.7344 25.6494 55.4412 25.7608 56.1088 25.9836C56.7763 26.1933 57.3981 26.4947 57.974 26.8879C58.5499 27.2679 59.0539 27.7266 59.4858 28.264C59.9309 28.7882 60.2843 29.3714 60.5461 30.0135C60.9256 30.8916 61.1154 31.8221 61.1154 32.805C61.1154 33.552 61.0042 34.2597 60.7817 34.9281C60.5722 35.5965 60.2777 36.219 59.8981 36.7956C59.5185 37.3723 59.0604 37.8834 58.5238 38.329C57.9871 38.7614 57.3981 39.1087 56.7567 39.3709C55.8797 39.7509 54.9569 39.9409 53.9883 39.9409C53.2684 39.9409 52.5681 39.8361 51.8875 39.6264C51.22 39.4167 50.5917 39.1153 50.0027 38.7221ZM51.5341 29.1486C50.8011 29.6335 50.2644 30.2822 49.9241 31.0947C49.7016 31.619 49.5903 32.1891 49.5903 32.805C49.5903 33.2637 49.6558 33.7027 49.7867 34.1221C49.9176 34.5284 50.1008 34.9084 50.3364 35.2623C50.572 35.603 50.8535 35.911 51.1807 36.1862C51.521 36.4614 51.8875 36.6842 52.2802 36.8546C52.8038 37.0774 53.3731 37.1888 53.9883 37.1888C54.4465 37.1888 54.8784 37.1233 55.2842 36.9922C55.703 36.8612 56.0892 36.6777 56.4426 36.4418C56.7829 36.2059 57.0905 35.9241 57.3654 35.5965C57.6402 35.2688 57.8628 34.9084 58.0329 34.5153C58.2554 33.9648 58.3667 33.3948 58.3667 32.805C58.3667 32.3463 58.3012 31.9073 58.1703 31.4879C58.0395 31.0685 57.8562 30.6885 57.6206 30.3477C57.1232 29.6138 56.4818 29.0765 55.6965 28.7358C55.1467 28.513 54.5773 28.4016 53.9883 28.4016C53.5302 28.4016 53.0917 28.4671 52.6729 28.5982C52.254 28.7292 51.8744 28.9127 51.5341 29.1486Z" fill="#181818"/>
<path d="M64.1742 38.4862V27.0255C64.1742 26.6454 64.3051 26.3244 64.5669 26.0622C64.8417 25.787 65.169 25.6494 65.5485 25.6494H72.3026C72.8393 25.6494 73.3497 25.7281 73.834 25.8853C74.3183 26.0426 74.7634 26.2588 75.1692 26.534C76.0069 27.0976 76.6286 27.8511 77.0344 28.7947C77.2962 29.4238 77.427 30.0856 77.427 30.7802C77.427 31.3175 77.3485 31.8287 77.1914 32.3136C77.0475 32.7985 76.838 33.244 76.5632 33.6503C76.0003 34.4891 75.2477 35.1116 74.3053 35.5178C73.677 35.78 73.0094 35.911 72.3026 35.911H66.9229V38.4862C66.9229 38.8663 66.7855 39.1939 66.5106 39.4691C66.2488 39.7313 65.9281 39.8623 65.5485 39.8623C65.169 39.8623 64.8417 39.7313 64.5669 39.4691C64.3051 39.1939 64.1742 38.8663 64.1742 38.4862ZM72.3026 33.1589C72.8131 33.1589 73.2581 33.0278 73.6377 32.7657C73.978 32.5429 74.2398 32.2611 74.4231 31.9204C74.6063 31.5665 74.6979 31.1865 74.6979 30.7802C74.6979 30.2953 74.5605 29.8563 74.2856 29.4631C74.0107 29.07 73.6639 28.7751 73.245 28.5785C72.944 28.4605 72.6298 28.4016 72.3026 28.4016H66.9229V33.1589H72.3026Z" fill="#181818"/>
<path d="M82.7422 38.7221C81.5772 37.9358 80.7133 36.8874 80.1505 35.5768C79.9672 35.1574 79.8232 34.7184 79.7185 34.2597C79.6269 33.7879 79.5811 33.303 79.5811 32.805C79.5811 32.058 79.6858 31.3503 79.8952 30.6819C80.1178 30.0004 80.4188 29.3779 80.7984 28.8144C81.1911 28.2378 81.6492 27.7332 82.1728 27.3007C82.7094 26.8551 83.2984 26.4947 83.9398 26.2195C84.3718 26.036 84.8168 25.8984 85.2749 25.8067C85.7461 25.7018 86.2304 25.6494 86.7278 25.6494C87.4739 25.6494 88.1807 25.7608 88.8483 25.9836C89.5158 26.1933 90.1376 26.4947 90.7135 26.8879C91.2894 27.2679 91.7934 27.7266 92.2253 28.264C92.6704 28.7882 93.0238 29.3714 93.2856 30.0135C93.6651 30.8916 93.8549 31.8221 93.8549 32.805C93.8549 33.552 93.7437 34.2597 93.5212 34.9281C93.3117 35.5965 93.0172 36.219 92.6376 36.7956C92.258 37.3723 91.7999 37.8834 91.2633 38.329C90.7266 38.7614 90.1376 39.1087 89.4962 39.3709C88.6192 39.7509 87.6964 39.9409 86.7278 39.9409C86.0079 39.9409 85.3076 39.8361 84.627 39.6264C83.9594 39.4167 83.3312 39.1153 82.7422 38.7221ZM84.2736 29.1486C83.5406 29.6335 83.0039 30.2822 82.6636 31.0947C82.4411 31.619 82.3298 32.1891 82.3298 32.805C82.3298 33.2637 82.3953 33.7027 82.5262 34.1221C82.6571 34.5284 82.8403 34.9084 83.0759 35.2623C83.3115 35.603 83.593 35.911 83.9202 36.1862C84.2605 36.4614 84.627 36.6842 85.0197 36.8546C85.5433 37.0774 86.1126 37.1888 86.7278 37.1888C87.186 37.1888 87.6179 37.1233 88.0237 36.9922C88.4425 36.8612 88.8287 36.6777 89.1821 36.4418C89.5224 36.2059 89.83 35.9241 90.1049 35.5965C90.3797 35.2688 90.6023 34.9084 90.7724 34.5153C90.9949 33.9648 91.1062 33.3948 91.1062 32.805C91.1062 32.3463 91.0407 31.9073 90.9099 31.4879C90.779 31.0685 90.5957 30.6885 90.3601 30.3477C89.8627 29.6138 89.2213 29.0765 88.436 28.7358C87.8862 28.513 87.3168 28.4016 86.7278 28.4016C86.2697 28.4016 85.8312 28.4671 85.4124 28.5982C84.9935 28.7292 84.6139 28.9127 84.2736 29.1486Z" fill="#181818"/>
<path d="M98.1506 39.135C97.4569 38.6763 96.9464 38.0538 96.6192 37.2674C96.3967 36.7432 96.2854 36.1928 96.2854 35.6161V27.0058C96.2854 26.6258 96.4163 26.3047 96.6781 26.0426C96.9399 25.7674 97.2606 25.6298 97.6401 25.6298C98.0197 25.6298 98.3404 25.7674 98.6022 26.0426C98.8771 26.3047 99.0145 26.6258 99.0145 27.0058V35.6161C99.0145 35.9045 99.0996 36.1862 99.2698 36.4614C99.4007 36.6711 99.5774 36.8349 99.7999 36.9529C100.035 37.0577 100.271 37.1102 100.507 37.1102H107.241C107.621 37.1102 107.941 37.2478 108.203 37.523C108.478 37.7851 108.615 38.1062 108.615 38.4862C108.615 38.8663 108.478 39.1939 108.203 39.4691C107.941 39.7313 107.621 39.8623 107.241 39.8623H100.507C100.062 39.8623 99.6428 39.7968 99.2501 39.6657C98.8574 39.5347 98.4909 39.3577 98.1506 39.135Z" fill="#181818"/>
<path d="M110.417 38.4862V27.0255C110.417 26.6454 110.548 26.3244 110.81 26.0622C111.085 25.787 111.412 25.6494 111.792 25.6494C112.171 25.6494 112.492 25.787 112.754 26.0622C113.016 26.3244 113.146 26.6454 113.146 27.0255V38.4862C113.146 38.8663 113.016 39.1939 112.754 39.4691C112.492 39.7313 112.171 39.8623 111.792 39.8623C111.412 39.8623 111.085 39.7313 110.81 39.4691C110.548 39.1939 110.417 38.8663 110.417 38.4862Z" fill="#181818"/>
<path d="M124.259 39.8623H116.877C116.497 39.8623 116.17 39.7313 115.895 39.4691C115.633 39.1939 115.502 38.8663 115.502 38.4862C115.502 38.1062 115.633 37.7851 115.895 37.523C116.17 37.2609 116.497 37.1298 116.877 37.1298H124.259C124.56 37.1298 124.842 37.0446 125.103 36.8743C125.365 36.6777 125.548 36.4549 125.653 36.2059C125.679 36.1141 125.705 36.0224 125.732 35.9307C125.758 35.8258 125.771 35.721 125.771 35.6161C125.771 35.3278 125.686 35.0526 125.516 34.7905C125.319 34.5284 125.097 34.3449 124.848 34.2401C124.665 34.1614 124.469 34.1221 124.259 34.1221H119.743C118.84 34.1221 118.048 33.8797 117.368 33.3948C117.027 33.172 116.726 32.9033 116.464 32.5888C116.203 32.2742 115.993 31.9269 115.836 31.5469C115.614 31.0227 115.502 30.4657 115.502 29.8759C115.502 29.4435 115.568 29.0306 115.699 28.6375C115.83 28.2312 116.006 27.8577 116.229 27.517C116.687 26.8224 117.309 26.3112 118.094 25.9836C118.605 25.7608 119.154 25.6494 119.743 25.6494H127.126C127.505 25.6494 127.826 25.7805 128.088 26.0426C128.363 26.3047 128.5 26.6258 128.5 27.0058C128.5 27.3859 128.363 27.7135 128.088 27.9888C127.826 28.2509 127.505 28.3819 127.126 28.3819H119.743C119.429 28.3819 119.148 28.4671 118.899 28.6375C118.65 28.8078 118.467 29.0306 118.349 29.3059C118.323 29.3976 118.297 29.4893 118.271 29.5811C118.245 29.6728 118.231 29.7711 118.231 29.8759C118.231 30.1905 118.317 30.4722 118.487 30.7212C118.683 30.9834 118.906 31.1668 119.154 31.2717C119.324 31.3503 119.521 31.3896 119.743 31.3896H124.259C125.162 31.3896 125.954 31.6321 126.635 32.117C126.975 32.3398 127.276 32.6084 127.538 32.923C127.8 33.2375 128.009 33.5848 128.166 33.9648C128.389 34.4891 128.5 35.0395 128.5 35.6161C128.5 36.0617 128.435 36.4876 128.304 36.8939C128.173 37.2871 127.996 37.654 127.774 37.9948C127.315 38.6894 126.694 39.2005 125.908 39.5281C125.385 39.7509 124.835 39.8623 124.259 39.8623Z" fill="#181818"/>
<path d="M12.3288 38.6632V30.4264L3.27753 39.4691C3.01575 39.7313 2.7016 39.8623 2.3351 39.8623C2.16494 39.8623 1.99478 39.8361 1.82462 39.7837C1.66755 39.7181 1.52357 39.6133 1.39268 39.4691C1.2487 39.3381 1.14398 39.1939 1.07854 39.0367C1.02618 38.8663 1 38.6959 1 38.5256C1 38.1586 1.13089 37.8441 1.39268 37.582L12.7214 26.2392C12.9832 25.9771 13.2974 25.846 13.6639 25.846C13.834 25.846 14.0042 25.8788 14.1743 25.9443C14.423 26.0491 14.6194 26.2195 14.7634 26.4554C14.9204 26.6782 14.999 26.9207 14.999 27.1828V38.6632C14.999 39.0432 14.8681 39.3643 14.6063 39.6264C14.3445 39.8754 14.0304 39.9999 13.6639 39.9999C13.2843 39.9999 12.9636 39.8754 12.7018 39.6264C12.4531 39.3643 12.3288 39.0432 12.3288 38.6632Z" stroke="#181818" stroke-width="0.6" mask="url(#path-6-outside-1_150_999)"/>
<path d="M29.5222 38.4862V32.746C29.5222 32.2873 29.4568 31.8549 29.3259 31.4486C29.195 31.0292 29.0117 30.6426 28.7761 30.2888C28.2918 29.568 27.6504 29.0372 26.852 28.6964C26.5902 28.5916 26.3153 28.5064 26.0274 28.4409C25.7394 28.3754 25.4449 28.3426 25.1439 28.3426H20.7459V38.4862C20.7459 38.8663 20.6084 39.1939 20.3335 39.4691C20.0718 39.7313 19.7511 39.8623 19.3715 39.8623C18.9919 39.8623 18.6712 39.7313 18.4094 39.4691C18.1476 39.1939 18.0168 38.8663 18.0168 38.4862V26.9862C18.0168 26.593 18.1476 26.2654 18.4094 26.0033C18.6712 25.7412 18.9919 25.6101 19.3715 25.6101H25.1439C25.8899 25.6101 26.5968 25.7215 27.2643 25.9443C27.9319 26.154 28.5536 26.4489 29.1295 26.8289C29.7055 27.209 30.2094 27.6677 30.6413 28.205C31.0864 28.7292 31.4463 29.319 31.7212 29.9742C32.0877 30.8523 32.271 31.7762 32.271 32.746V38.4862C32.271 38.8663 32.1335 39.1939 31.8586 39.4691C31.5969 39.7313 31.2762 39.8623 30.8966 39.8623C30.517 39.8623 30.1898 39.7313 29.9149 39.4691C29.6531 39.1939 29.5222 38.8663 29.5222 38.4862Z" stroke="#181818" stroke-width="0.6" mask="url(#path-6-outside-1_150_999)"/>
<path d="M45.1483 25.6494C45.5279 25.6494 45.8486 25.787 46.1104 26.0622C46.3853 26.3244 46.5227 26.6454 46.5227 27.0255C46.5227 27.4056 46.3853 27.7332 46.1104 28.0084C45.8486 28.2705 45.5279 28.4016 45.1483 28.4016H40.77V38.5059C40.77 38.886 40.6391 39.207 40.3773 39.4691C40.1155 39.7313 39.7948 39.8623 39.4152 39.8623C39.0356 39.8623 38.7084 39.7313 38.4335 39.4691C38.1717 39.207 38.0409 38.886 38.0409 38.5059V28.4016H33.6625C33.2829 28.4016 32.9622 28.2705 32.7004 28.0084C32.4387 27.7332 32.3078 27.4056 32.3078 27.0255C32.3078 26.6454 32.4387 26.3244 32.7004 26.0622C32.9622 25.787 33.2829 25.6494 33.6625 25.6494H45.1483Z" stroke="#181818" stroke-width="0.6" mask="url(#path-6-outside-1_150_999)"/>
<path d="M50.0027 38.7221C48.8377 37.9358 47.9738 36.8874 47.411 35.5768C47.2277 35.1574 47.0837 34.7184 46.979 34.2597C46.8874 33.7879 46.8416 33.303 46.8416 32.805C46.8416 32.058 46.9463 31.3503 47.1557 30.6819C47.3783 30.0004 47.6793 29.3779 48.0589 28.8144C48.4516 28.2378 48.9097 27.7332 49.4333 27.3007C49.9699 26.8551 50.5589 26.4947 51.2003 26.2195C51.6323 26.036 52.0773 25.8984 52.5354 25.8067C53.0066 25.7018 53.4909 25.6494 53.9883 25.6494C54.7344 25.6494 55.4412 25.7608 56.1088 25.9836C56.7763 26.1933 57.3981 26.4947 57.974 26.8879C58.5499 27.2679 59.0539 27.7266 59.4858 28.264C59.9309 28.7882 60.2843 29.3714 60.5461 30.0135C60.9256 30.8916 61.1154 31.8221 61.1154 32.805C61.1154 33.552 61.0042 34.2597 60.7817 34.9281C60.5722 35.5965 60.2777 36.219 59.8981 36.7956C59.5185 37.3723 59.0604 37.8834 58.5238 38.329C57.9871 38.7614 57.3981 39.1087 56.7567 39.3709C55.8797 39.7509 54.9569 39.9409 53.9883 39.9409C53.2684 39.9409 52.5681 39.8361 51.8875 39.6264C51.22 39.4167 50.5917 39.1153 50.0027 38.7221ZM51.5341 29.1486C50.8011 29.6335 50.2644 30.2822 49.9241 31.0947C49.7016 31.619 49.5903 32.1891 49.5903 32.805C49.5903 33.2637 49.6558 33.7027 49.7867 34.1221C49.9176 34.5284 50.1008 34.9084 50.3364 35.2623C50.572 35.603 50.8535 35.911 51.1807 36.1862C51.521 36.4614 51.8875 36.6842 52.2802 36.8546C52.8038 37.0774 53.3731 37.1888 53.9883 37.1888C54.4465 37.1888 54.8784 37.1233 55.2842 36.9922C55.703 36.8612 56.0892 36.6777 56.4426 36.4418C56.7829 36.2059 57.0905 35.9241 57.3654 35.5965C57.6402 35.2688 57.8628 34.9084 58.0329 34.5153C58.2554 33.9648 58.3667 33.3948 58.3667 32.805C58.3667 32.3463 58.3012 31.9073 58.1703 31.4879C58.0395 31.0685 57.8562 30.6885 57.6206 30.3477C57.1232 29.6138 56.4818 29.0765 55.6965 28.7358C55.1467 28.513 54.5773 28.4016 53.9883 28.4016C53.5302 28.4016 53.0917 28.4671 52.6729 28.5982C52.254 28.7292 51.8744 28.9127 51.5341 29.1486Z" stroke="#181818" stroke-width="0.6" mask="url(#path-6-outside-1_150_999)"/>
<path d="M64.1742 38.4862V27.0255C64.1742 26.6454 64.3051 26.3244 64.5669 26.0622C64.8417 25.787 65.169 25.6494 65.5485 25.6494H72.3026C72.8393 25.6494 73.3497 25.7281 73.834 25.8853C74.3183 26.0426 74.7634 26.2588 75.1692 26.534C76.0069 27.0976 76.6286 27.8511 77.0344 28.7947C77.2962 29.4238 77.427 30.0856 77.427 30.7802C77.427 31.3175 77.3485 31.8287 77.1914 32.3136C77.0475 32.7985 76.838 33.244 76.5632 33.6503C76.0003 34.4891 75.2477 35.1116 74.3053 35.5178C73.677 35.78 73.0094 35.911 72.3026 35.911H66.9229V38.4862C66.9229 38.8663 66.7855 39.1939 66.5106 39.4691C66.2488 39.7313 65.9281 39.8623 65.5485 39.8623C65.169 39.8623 64.8417 39.7313 64.5669 39.4691C64.3051 39.1939 64.1742 38.8663 64.1742 38.4862ZM72.3026 33.1589C72.8131 33.1589 73.2581 33.0278 73.6377 32.7657C73.978 32.5429 74.2398 32.2611 74.4231 31.9204C74.6063 31.5665 74.6979 31.1865 74.6979 30.7802C74.6979 30.2953 74.5605 29.8563 74.2856 29.4631C74.0107 29.07 73.6639 28.7751 73.245 28.5785C72.944 28.4605 72.6298 28.4016 72.3026 28.4016H66.9229V33.1589H72.3026Z" stroke="#181818" stroke-width="0.6" mask="url(#path-6-outside-1_150_999)"/>
<path d="M82.7422 38.7221C81.5772 37.9358 80.7133 36.8874 80.1505 35.5768C79.9672 35.1574 79.8232 34.7184 79.7185 34.2597C79.6269 33.7879 79.5811 33.303 79.5811 32.805C79.5811 32.058 79.6858 31.3503 79.8952 30.6819C80.1178 30.0004 80.4188 29.3779 80.7984 28.8144C81.1911 28.2378 81.6492 27.7332 82.1728 27.3007C82.7094 26.8551 83.2984 26.4947 83.9398 26.2195C84.3718 26.036 84.8168 25.8984 85.2749 25.8067C85.7461 25.7018 86.2304 25.6494 86.7278 25.6494C87.4739 25.6494 88.1807 25.7608 88.8483 25.9836C89.5158 26.1933 90.1376 26.4947 90.7135 26.8879C91.2894 27.2679 91.7934 27.7266 92.2253 28.264C92.6704 28.7882 93.0238 29.3714 93.2856 30.0135C93.6651 30.8916 93.8549 31.8221 93.8549 32.805C93.8549 33.552 93.7437 34.2597 93.5212 34.9281C93.3117 35.5965 93.0172 36.219 92.6376 36.7956C92.258 37.3723 91.7999 37.8834 91.2633 38.329C90.7266 38.7614 90.1376 39.1087 89.4962 39.3709C88.6192 39.7509 87.6964 39.9409 86.7278 39.9409C86.0079 39.9409 85.3076 39.8361 84.627 39.6264C83.9594 39.4167 83.3312 39.1153 82.7422 38.7221ZM84.2736 29.1486C83.5406 29.6335 83.0039 30.2822 82.6636 31.0947C82.4411 31.619 82.3298 32.1891 82.3298 32.805C82.3298 33.2637 82.3953 33.7027 82.5262 34.1221C82.6571 34.5284 82.8403 34.9084 83.0759 35.2623C83.3115 35.603 83.593 35.911 83.9202 36.1862C84.2605 36.4614 84.627 36.6842 85.0197 36.8546C85.5433 37.0774 86.1126 37.1888 86.7278 37.1888C87.186 37.1888 87.6179 37.1233 88.0237 36.9922C88.4425 36.8612 88.8287 36.6777 89.1821 36.4418C89.5224 36.2059 89.83 35.9241 90.1049 35.5965C90.3797 35.2688 90.6023 34.9084 90.7724 34.5153C90.9949 33.9648 91.1062 33.3948 91.1062 32.805C91.1062 32.3463 91.0407 31.9073 90.9099 31.4879C90.779 31.0685 90.5957 30.6885 90.3601 30.3477C89.8627 29.6138 89.2213 29.0765 88.436 28.7358C87.8862 28.513 87.3168 28.4016 86.7278 28.4016C86.2697 28.4016 85.8312 28.4671 85.4124 28.5982C84.9935 28.7292 84.6139 28.9127 84.2736 29.1486Z" stroke="#181818" stroke-width="0.6" mask="url(#path-6-outside-1_150_999)"/>
<path d="M98.1506 39.135C97.4569 38.6763 96.9464 38.0538 96.6192 37.2674C96.3967 36.7432 96.2854 36.1928 96.2854 35.6161V27.0058C96.2854 26.6258 96.4163 26.3047 96.6781 26.0426C96.9399 25.7674 97.2606 25.6298 97.6401 25.6298C98.0197 25.6298 98.3404 25.7674 98.6022 26.0426C98.8771 26.3047 99.0145 26.6258 99.0145 27.0058V35.6161C99.0145 35.9045 99.0996 36.1862 99.2698 36.4614C99.4007 36.6711 99.5774 36.8349 99.7999 36.9529C100.035 37.0577 100.271 37.1102 100.507 37.1102H107.241C107.621 37.1102 107.941 37.2478 108.203 37.523C108.478 37.7851 108.615 38.1062 108.615 38.4862C108.615 38.8663 108.478 39.1939 108.203 39.4691C107.941 39.7313 107.621 39.8623 107.241 39.8623H100.507C100.062 39.8623 99.6428 39.7968 99.2501 39.6657C98.8574 39.5347 98.4909 39.3577 98.1506 39.135Z" stroke="#181818" stroke-width="0.6" mask="url(#path-6-outside-1_150_999)"/>
<path d="M110.417 38.4862V27.0255C110.417 26.6454 110.548 26.3244 110.81 26.0622C111.085 25.787 111.412 25.6494 111.792 25.6494C112.171 25.6494 112.492 25.787 112.754 26.0622C113.016 26.3244 113.146 26.6454 113.146 27.0255V38.4862C113.146 38.8663 113.016 39.1939 112.754 39.4691C112.492 39.7313 112.171 39.8623 111.792 39.8623C111.412 39.8623 111.085 39.7313 110.81 39.4691C110.548 39.1939 110.417 38.8663 110.417 38.4862Z" stroke="#181818" stroke-width="0.6" mask="url(#path-6-outside-1_150_999)"/>
<path d="M124.259 39.8623H116.877C116.497 39.8623 116.17 39.7313 115.895 39.4691C115.633 39.1939 115.502 38.8663 115.502 38.4862C115.502 38.1062 115.633 37.7851 115.895 37.523C116.17 37.2609 116.497 37.1298 116.877 37.1298H124.259C124.56 37.1298 124.842 37.0446 125.103 36.8743C125.365 36.6777 125.548 36.4549 125.653 36.2059C125.679 36.1141 125.705 36.0224 125.732 35.9307C125.758 35.8258 125.771 35.721 125.771 35.6161C125.771 35.3278 125.686 35.0526 125.516 34.7905C125.319 34.5284 125.097 34.3449 124.848 34.2401C124.665 34.1614 124.469 34.1221 124.259 34.1221H119.743C118.84 34.1221 118.048 33.8797 117.368 33.3948C117.027 33.172 116.726 32.9033 116.464 32.5888C116.203 32.2742 115.993 31.9269 115.836 31.5469C115.614 31.0227 115.502 30.4657 115.502 29.8759C115.502 29.4435 115.568 29.0306 115.699 28.6375C115.83 28.2312 116.006 27.8577 116.229 27.517C116.687 26.8224 117.309 26.3112 118.094 25.9836C118.605 25.7608 119.154 25.6494 119.743 25.6494H127.126C127.505 25.6494 127.826 25.7805 128.088 26.0426C128.363 26.3047 128.5 26.6258 128.5 27.0058C128.5 27.3859 128.363 27.7135 128.088 27.9888C127.826 28.2509 127.505 28.3819 127.126 28.3819H119.743C119.429 28.3819 119.148 28.4671 118.899 28.6375C118.65 28.8078 118.467 29.0306 118.349 29.3059C118.323 29.3976 118.297 29.4893 118.271 29.5811C118.245 29.6728 118.231 29.7711 118.231 29.8759C118.231 30.1905 118.317 30.4722 118.487 30.7212C118.683 30.9834 118.906 31.1668 119.154 31.2717C119.324 31.3503 119.521 31.3896 119.743 31.3896H124.259C125.162 31.3896 125.954 31.6321 126.635 32.117C126.975 32.3398 127.276 32.6084 127.538 32.923C127.8 33.2375 128.009 33.5848 128.166 33.9648C128.389 34.4891 128.5 35.0395 128.5 35.6161C128.5 36.0617 128.435 36.4876 128.304 36.8939C128.173 37.2871 127.996 37.654 127.774 37.9948C127.315 38.6894 126.694 39.2005 125.908 39.5281C125.385 39.7509 124.835 39.8623 124.259 39.8623Z" stroke="#181818" stroke-width="0.6" mask="url(#path-6-outside-1_150_999)"/>
</svg>
