<svg width="26" height="26" viewBox="0 0 26 26" fill="none" xmlns="http://www.w3.org/2000/svg">
<path d="M4.60343 12.602C4.49735 12.8587 4.49735 13.1471 4.60343 13.4038C4.65465 13.5311 4.73032 13.6472 4.82617 13.7454L12.2508 21.17C12.4477 21.3669 12.7148 21.4775 12.9933 21.4775C13.2717 21.4775 13.5388 21.3669 13.7357 21.17C13.9326 20.9731 14.0433 20.706 14.0433 20.4275C14.0433 20.149 13.9326 19.882 13.7357 19.6851L8.10043 14.0498L20.4179 14.0572C20.5565 14.0578 20.6938 14.0309 20.822 13.9781C20.9502 13.9253 21.0666 13.8477 21.1646 13.7497C21.2627 13.6516 21.3403 13.5352 21.3931 13.407C21.4459 13.2789 21.4727 13.1415 21.4722 13.0029C21.4727 12.8643 21.4459 12.7269 21.3931 12.5988C21.3403 12.4706 21.2627 12.3541 21.1646 12.2561C21.0666 12.1581 20.9502 12.0805 20.822 12.0277C20.6938 11.9749 20.5565 11.948 20.4179 11.9486L8.10043 11.956L13.7357 6.32073C13.9326 6.12382 14.0433 5.85675 14.0433 5.57827C14.0433 5.29979 13.9326 5.03272 13.7357 4.83581C13.5388 4.6389 13.2717 4.52827 12.9933 4.52827C12.7148 4.52827 12.4477 4.6389 12.2508 4.83581L4.82617 12.2604C4.73032 12.3586 4.65465 12.4747 4.60343 12.602Z" fill="#181818"/>
</svg>
