<svg width="97" height="103" viewBox="0 0 97 103" fill="none" xmlns="http://www.w3.org/2000/svg">
<g clip-path="url(#clip0_32_408)">
<path d="M96.2105 32.2967C94.2363 28.7812 90.9207 27.8346 87.7539 27.3581C83.3402 26.7535 78.8152 26.6139 74.4388 26.9442C54.3201 28.9933 37.9887 38.3816 25.2051 53.807C21.9689 57.7404 19.2448 62.2027 15.9964 66.9144C13.1013 62.395 13.348 56.6391 10.6139 51.8114C9.02464 53.597 9.35944 55.4719 9.59507 57.0334C10.5872 63.4361 11.6825 69.8927 12.9347 76.3005C13.5629 79.3747 14.7975 80.2809 17.6214 79.4015C23.5292 77.6477 28.3179 74.2633 31.8304 69.2973C31.9377 69.0918 31.789 68.6219 31.6444 67.8925C26.6154 66.7051 24.6967 72.8957 19.8042 72.9565C21.8547 65.0039 26.6346 58.8688 31.9265 53.2626C37.4826 47.4021 43.4971 42.1732 50.6845 38.4721C57.7149 34.8198 65.1875 32.8369 73.0153 31.4317C80.7934 29.8699 88.4357 30.3295 96.2105 32.2967Z" fill="#181818"/>
</g>
<defs>
<clipPath id="clip0_32_408">
<rect width="67" height="81" fill="white" transform="matrix(-0.886437 -0.462849 -0.462849 0.886437 96.8818 31.0109)"/>
</clipPath>
</defs>
</svg>
