<svg width="26" height="26" viewBox="0 0 26 26" fill="none" xmlns="http://www.w3.org/2000/svg">
<path d="M21.3917 13.4039C21.4978 13.1471 21.4978 12.8588 21.3917 12.602C21.3405 12.4747 21.2648 12.3587 21.1689 12.2605L13.7443 4.83588C13.5474 4.63897 13.2803 4.52834 13.0019 4.52834C12.7234 4.52834 12.4563 4.63897 12.2594 4.83588C12.0625 5.03279 11.9519 5.29986 11.9519 5.57834C11.9519 5.85682 12.0625 6.12389 12.2594 6.3208L17.8947 11.9561L5.57724 11.9487C5.43863 11.9481 5.30128 11.975 5.17311 12.0278C5.04494 12.0805 4.92849 12.1582 4.83047 12.2562C4.73246 12.3542 4.65482 12.4707 4.60204 12.5988C4.54926 12.727 4.52238 12.8644 4.52295 13.003C4.52238 13.1416 4.54926 13.2789 4.60204 13.4071C4.65482 13.5353 4.73246 13.6517 4.83047 13.7497C4.92849 13.8477 5.04494 13.9254 5.17311 13.9782C5.30128 14.0309 5.43863 14.0578 5.57724 14.0573L17.8947 14.0498L12.2594 19.6851C12.0625 19.882 11.9519 20.1491 11.9519 20.4276C11.9519 20.7061 12.0625 20.9731 12.2594 21.17C12.4563 21.367 12.7234 21.4776 13.0019 21.4776C13.2803 21.4776 13.5474 21.367 13.7443 21.17L21.1689 13.7454C21.2648 13.6472 21.3405 13.5312 21.3917 13.4039Z" fill="#181818"/>
</svg>
